<svg width="942" height="1102" viewBox="0 0 942 1102" fill="none" xmlns="http://www.w3.org/2000/svg">
<path d="M738.481 103.59C903.712 -25.2616 1087.35 37.8517 1163.26 88.6923C1267.4 299.343 1375.66 768.335 975.492 959.104C475.287 1197.56 131.883 903.197 75.4702 781.174C54.8822 736.642 5.76908 577.446 267.814 549.092C529.858 520.738 573.25 232.441 738.481 103.59Z" fill="#E8E8E8"/>
<path d="M768.766 151.717C930.354 48.8876 1091.94 122.337 1156.58 175.221C1232.97 375.982 1290.55 812.173 909.788 950.846C433.837 1124.19 108.627 824.24 81.4819 715.659C62.8734 641.226 60.7141 518.964 301.628 516.026C542.542 513.088 607.177 254.546 768.766 151.717Z" fill="url(#paint0_linear)"/>
<defs>
<linearGradient id="paint0_linear" x1="436.117" y1="270.32" x2="647.156" y2="994.469" gradientUnits="userSpaceOnUse">
<stop stop-color="#4BD6EC"/>
<stop offset="1" stop-color="#0F5BB0"/>
</linearGradient>
</defs>
</svg>
