<svg width="1920" height="1017" viewBox="0 0 1920 1017" fill="none" xmlns="http://www.w3.org/2000/svg">
<path d="M1892.8 58.6132L-80.8599 178.023L-45.6214 760.459C-44.9983 770.757 -2.32073 801.767 5.72847 811.33C73.7652 891.051 173.38 970.297 282.547 988.959C391.123 1007.37 499.422 968.947 591.986 917.408C736.545 837.17 834.706 716.672 966.662 622.841C1184.31 468.412 1468.97 523.83 1717.56 467.732C1782.48 453.181 1851.14 429.216 1893.99 377.527C1930.4 333.405 1904.92 263.742 1901.87 213.394C1899.06 162.17 1895.93 110.392 1892.8 58.6132Z" fill="#F5F5F5"/>
<path d="M1977.29 135.345L-21.4946 0L-50.1999 573.971C-50.7074 584.12 -11.1868 619.892 -4.14207 630.269C55.5259 716.906 147.016 807.112 254.789 839.302C361.997 871.171 475.185 847.437 573.988 808.869C728.262 748.882 840.292 643.605 983.385 568.717C1219.37 445.526 1499.64 536.07 1755.93 512.974C1822.84 507.039 1894.56 492.378 1943.36 447.312C1984.85 408.823 1966.89 337.456 1969.37 287.84C1972.19 237.397 1974.74 186.371 1977.29 135.345Z" fill="#E8E8E8"/>
<path d="M1959.77 -16.1804H-17.4918V567.32C-17.4918 577.637 23.2351 611.169 30.6922 621.199C93.7902 704.884 188.437 790.002 296.278 815.222C403.544 840.155 513.966 808.344 609.474 762.489C758.614 691.128 863.873 576.778 1001.26 491.087C1227.83 350.084 1508.62 422.591 1760.15 381.609C1825.83 371.005 1895.81 351.23 1941.7 302.223C1980.71 260.38 1959.49 189.306 1959.49 138.866C1959.77 87.5658 1959.77 35.6927 1959.77 -16.1804Z" fill="url(#paint0_linear)"/>
<defs>
<linearGradient id="paint0_linear" x1="973.879" y1="-16.1804" x2="973.879" y2="823.959" gradientUnits="userSpaceOnUse">
<stop stop-color="#0D57AE"/>
<stop offset="1" stop-color="#4EDDEF"/>
</linearGradient>
</defs>
</svg>
