<svg width="146" height="127" viewBox="0 0 146 127" fill="none" xmlns="http://www.w3.org/2000/svg">
<path d="M8.46377 99.0249C8.81642 99.259 8.81642 99.4931 8.46377 99.7272C8.11111 99.9613 7.6409 99.9613 7.28824 99.7272C6.93559 99.4931 6.93559 99.259 7.28824 99.0249C7.52335 98.7908 8.11111 98.7908 8.46377 99.0249Z" fill="#281A57"/>
<path d="M11.6377 97.1521C11.9903 97.3862 11.9903 97.6203 11.6377 97.8544C11.285 98.0885 10.8148 98.0885 10.4622 97.8544C10.1095 97.6203 10.1095 97.3862 10.4622 97.1521C10.6973 97.035 11.285 97.035 11.6377 97.1521Z" fill="#281A57"/>
<path d="M14.8116 95.3963C15.1642 95.6304 15.1642 95.8645 14.8116 96.0986C14.4589 96.3327 13.9887 96.3327 13.6361 96.0986C13.2834 95.8645 13.2834 95.6304 13.6361 95.3963C13.8712 95.1622 14.4589 95.1622 14.8116 95.3963Z" fill="#281A57"/>
<path d="M17.9855 93.5235C18.3382 93.7576 18.3382 93.9917 17.9855 94.2258C17.6329 94.4599 17.1626 94.4599 16.81 94.2258C16.4573 93.9917 16.4573 93.7576 16.81 93.5235C17.0451 93.4065 17.6329 93.4065 17.9855 93.5235Z" fill="#281A57"/>
<path d="M21.1594 91.7677C21.5121 92.0018 21.5121 92.2359 21.1594 92.47C20.8068 92.7041 20.3366 92.7041 19.9839 92.47C19.6312 92.2359 19.6312 92.0018 19.9839 91.7677C20.219 91.5336 20.8068 91.5336 21.1594 91.7677Z" fill="#281A57"/>
<path d="M24.3333 89.8949C24.686 90.129 24.686 90.3631 24.3333 90.5972C23.9807 90.8313 23.5105 90.8313 23.1578 90.5972C22.8052 90.3631 22.8052 90.129 23.1578 89.8949C23.5105 89.7779 23.9807 89.7779 24.3333 89.8949Z" fill="#281A57"/>
<path d="M27.5072 88.1392C27.8599 88.3733 27.8599 88.6074 27.5072 88.8415C27.1546 89.0756 26.6844 89.0756 26.3317 88.8415C25.9791 88.6074 25.9791 88.3733 26.3317 88.1392C26.6844 87.9051 27.1546 87.9051 27.5072 88.1392Z" fill="#281A57"/>
<path d="M30.6812 86.2664C31.0338 86.5005 31.0338 86.7346 30.6812 86.9687C30.3285 87.2028 29.8583 87.2028 29.5056 86.9687C29.153 86.7346 29.153 86.5005 29.5056 86.2664C29.8583 86.0322 30.3285 86.0322 30.6812 86.2664Z" fill="#281A57"/>
<path d="M33.8551 84.3936C34.2077 84.6277 34.2077 84.8618 33.8551 85.0959C33.5024 85.33 33.0322 85.33 32.6795 85.0959C32.3269 84.8618 32.3269 84.6277 32.6795 84.3936C33.0322 84.2765 33.5024 84.2765 33.8551 84.3936Z" fill="#281A57"/>
<path d="M37.029 82.6378C37.3816 82.8719 37.3816 83.106 37.029 83.3401C36.6763 83.5742 36.2061 83.5742 35.8535 83.3401C35.5008 83.106 35.5008 82.8719 35.8535 82.6378C36.2061 82.4037 36.6763 82.4037 37.029 82.6378Z" fill="#281A57"/>
<path d="M40.2029 80.765C40.5556 80.9991 40.5556 81.2332 40.2029 81.4673C39.8502 81.7014 39.38 81.7014 39.0274 81.4673C38.6747 81.2332 38.6747 80.9991 39.0274 80.765C39.38 80.6479 39.8502 80.6479 40.2029 80.765Z" fill="#281A57"/>
<path d="M43.3768 79.0092C43.7295 79.2433 43.7295 79.4774 43.3768 79.7115C43.0242 79.9456 42.554 79.9456 42.2013 79.7115C41.8486 79.4774 41.8486 79.2433 42.2013 79.0092C42.554 78.7751 43.0242 78.7751 43.3768 79.0092Z" fill="#281A57"/>
<path d="M46.5507 77.1364C46.9034 77.3705 46.9034 77.6046 46.5507 77.8387C46.1981 78.0728 45.7279 78.0728 45.3752 77.8387C45.0225 77.6046 45.0225 77.3705 45.3752 77.1364C45.7279 76.9023 46.1981 76.9023 46.5507 77.1364Z" fill="#281A57"/>
<path d="M49.7246 75.2636C50.0773 75.4977 50.0773 75.7318 49.7246 75.9659C49.372 76.2 48.9018 76.2 48.5491 75.9659C48.1965 75.7318 48.1965 75.4977 48.5491 75.2636C48.9018 75.1465 49.372 75.1465 49.7246 75.2636Z" fill="#281A57"/>
<path d="M52.8986 73.5078C53.2512 73.7419 53.2512 73.976 52.8986 74.2101C52.5459 74.4442 52.0757 74.4442 51.723 74.2101C51.3704 73.976 51.3704 73.7419 51.723 73.5078C52.0757 73.2737 52.5459 73.2737 52.8986 73.5078Z" fill="#281A57"/>
<path d="M56.0725 71.635C56.4251 71.8691 56.4251 72.1032 56.0725 72.3373C55.7198 72.5714 55.2496 72.5714 54.8969 72.3373C54.5443 72.1032 54.5443 71.8691 54.8969 71.635C55.2496 71.518 55.8374 71.518 56.0725 71.635Z" fill="#281A57"/>
<path d="M59.2464 69.8793C59.599 70.1134 59.599 70.3475 59.2464 70.5816C58.8937 70.8157 58.4235 70.8157 58.0709 70.5816C57.7182 70.3475 57.7182 70.1134 58.0709 69.8793C58.4235 69.6452 59.0113 69.6452 59.2464 69.8793Z" fill="#281A57"/>
<path d="M62.4203 68.0064C62.7729 68.2405 62.7729 68.4747 62.4203 68.7088C62.0676 68.9429 61.5974 68.9429 61.2448 68.7088C60.8921 68.4747 60.8921 68.2405 61.2448 68.0064C61.5974 67.7723 62.1852 67.7723 62.4203 68.0064Z" fill="#281A57"/>
<path d="M43.3768 75.2636C43.7295 75.4977 43.7295 75.7318 43.3768 75.9659C43.0242 76.2 42.554 76.2 42.2013 75.9659C41.8486 75.7318 41.8486 75.4977 42.2013 75.2636C42.554 75.1465 43.0242 75.1465 43.3768 75.2636Z" fill="#281A57"/>
<path d="M46.5507 73.5078C46.9034 73.7419 46.9034 73.976 46.5507 74.2101C46.1981 74.4442 45.7279 74.4442 45.3752 74.2101C45.0225 73.976 45.0225 73.7419 45.3752 73.5078C45.7279 73.2737 46.1981 73.2737 46.5507 73.5078Z" fill="#281A57"/>
<path d="M49.7246 71.635C50.0773 71.8691 50.0773 72.1032 49.7246 72.3373C49.372 72.5714 48.9018 72.5714 48.5491 72.3373C48.1965 72.1032 48.1965 71.8691 48.5491 71.635C48.9018 71.518 49.372 71.518 49.7246 71.635Z" fill="#281A57"/>
<path d="M52.8986 69.8793C53.2512 70.1134 53.2512 70.3475 52.8986 70.5816C52.5459 70.8157 52.0757 70.8157 51.723 70.5816C51.3704 70.3475 51.3704 70.1134 51.723 69.8793C52.0757 69.6452 52.5459 69.6452 52.8986 69.8793Z" fill="#281A57"/>
<path d="M56.0725 68.0064C56.4251 68.2405 56.4251 68.4747 56.0725 68.7088C55.7198 68.9429 55.2496 68.9429 54.8969 68.7088C54.5443 68.4747 54.5443 68.2405 54.8969 68.0064C55.2496 67.7723 55.8374 67.7723 56.0725 68.0064C56.4251 68.2405 55.8374 67.7723 56.0725 68.0064Z" fill="#281A57"/>
<path d="M40.2029 73.5078C40.5556 73.7419 40.5556 73.976 40.2029 74.2101C39.8502 74.4442 39.38 74.4442 39.0274 74.2101C38.6747 73.976 38.6747 73.7419 39.0274 73.5078C39.38 73.2737 39.8502 73.2737 40.2029 73.5078Z" fill="#281A57"/>
<path d="M43.3768 71.635C43.7295 71.8691 43.7295 72.1032 43.3768 72.3373C43.0242 72.5714 42.554 72.5714 42.2013 72.3373C41.8486 72.1032 41.8486 71.8691 42.2013 71.635C42.554 71.518 43.0242 71.518 43.3768 71.635Z" fill="#281A57"/>
<path d="M46.5507 69.8793C46.9034 70.1134 46.9034 70.3475 46.5507 70.5816C46.1981 70.8157 45.7279 70.8157 45.3752 70.5816C45.0225 70.3475 45.0225 70.1134 45.3752 69.8793C45.7279 69.6452 46.1981 69.6452 46.5507 69.8793Z" fill="#281A57"/>
<path d="M49.7246 68.0064C50.0773 68.2405 50.0773 68.4747 49.7246 68.7088C49.372 68.9429 48.9018 68.9429 48.5491 68.7088C48.1965 68.4747 48.1965 68.2405 48.5491 68.0064C48.9018 67.7723 49.372 67.7723 49.7246 68.0064Z" fill="#281A57"/>
<path d="M37.029 71.635C37.3816 71.8691 37.3816 72.1032 37.029 72.3373C36.6763 72.5714 36.2061 72.5714 35.8535 72.3373C35.5008 72.1032 35.5008 71.8691 35.8535 71.635C36.2061 71.518 36.6763 71.518 37.029 71.635Z" fill="#281A57"/>
<path d="M40.2029 69.8793C40.5556 70.1134 40.5556 70.3475 40.2029 70.5816C39.8502 70.8157 39.38 70.8157 39.0274 70.5816C38.6747 70.3475 38.6747 70.1134 39.0274 69.8793C39.38 69.6452 39.8502 69.6452 40.2029 69.8793Z" fill="#281A57"/>
<path d="M43.3768 68.0064C43.7295 68.2405 43.7295 68.4747 43.3768 68.7088C43.0242 68.9429 42.554 68.9429 42.2013 68.7088C41.8486 68.4747 41.8486 68.2405 42.2013 68.0064C42.554 67.7723 43.0242 67.7723 43.3768 68.0064Z" fill="#281A57"/>
<path d="M46.5507 66.1336C46.9034 66.3677 46.9034 66.6018 46.5507 66.8359C46.1981 67.07 45.7279 67.07 45.3752 66.8359C45.0225 66.6018 45.0225 66.3677 45.3752 66.1336C45.7279 66.0166 46.1981 66.0166 46.5507 66.1336Z" fill="#281A57"/>
<path d="M33.8551 69.8793C34.2077 70.1134 34.2077 70.3475 33.8551 70.5816C33.5024 70.8157 33.0322 70.8157 32.6795 70.5816C32.3269 70.3475 32.3269 70.1134 32.6795 69.8793C33.0322 69.6452 33.5024 69.6452 33.8551 69.8793Z" fill="#281A57"/>
<path d="M37.029 68.0064C37.3816 68.2405 37.3816 68.4747 37.029 68.7088C36.6763 68.9429 36.2061 68.9429 35.8535 68.7088C35.5008 68.4747 35.5008 68.2405 35.8535 68.0064C36.2061 67.7723 36.6763 67.7723 37.029 68.0064Z" fill="#281A57"/>
<path d="M40.2029 66.1336C40.5556 66.3677 40.5556 66.6018 40.2029 66.8359C39.8502 67.07 39.38 67.07 39.0274 66.8359C38.6747 66.6018 38.6747 66.3677 39.0274 66.1336C39.38 66.0166 39.8502 66.0166 40.2029 66.1336Z" fill="#281A57"/>
<path d="M43.3768 64.3779C43.7295 64.612 43.7295 64.8461 43.3768 65.0802C43.0242 65.3143 42.554 65.3143 42.2013 65.0802C41.8486 64.8461 41.8486 64.612 42.2013 64.3779C42.554 64.1438 43.0242 64.1438 43.3768 64.3779C43.7295 64.4949 43.0242 64.1438 43.3768 64.3779Z" fill="#281A57"/>
<path d="M30.6812 68.0064C31.0338 68.2405 31.0338 68.4747 30.6812 68.7088C30.3285 68.9429 29.8583 68.9429 29.5056 68.7088C29.153 68.4747 29.153 68.2405 29.5056 68.0064C29.7407 67.7723 30.3285 67.7723 30.6812 68.0064Z" fill="#281A57"/>
<path d="M33.8551 66.1336C34.2077 66.3677 34.2077 66.6018 33.8551 66.8359C33.5024 67.07 33.0322 67.07 32.6795 66.8359C32.3269 66.6018 32.3269 66.3677 32.6795 66.1336C32.9147 66.0166 33.5024 66.0166 33.8551 66.1336Z" fill="#281A57"/>
<path d="M37.029 64.3779C37.3816 64.612 37.3816 64.8461 37.029 65.0802C36.6763 65.3143 36.2061 65.3143 35.8535 65.0802C35.5008 64.8461 35.5008 64.612 35.8535 64.3779C36.0886 64.1438 36.6763 64.1438 37.029 64.3779Z" fill="#281A57"/>
<path d="M40.2029 62.5051C40.5556 62.7392 40.5556 62.9733 40.2029 63.2074C39.8502 63.4415 39.38 63.4415 39.0274 63.2074C38.6747 62.9733 38.6747 62.7392 39.0274 62.5051C39.2625 62.271 39.8502 62.271 40.2029 62.5051Z" fill="#281A57"/>
<path d="M30.6812 64.3779C31.0338 64.612 31.0338 64.8461 30.6812 65.0802C30.3285 65.3143 29.8583 65.3143 29.5056 65.0802C29.153 64.8461 29.153 64.612 29.5056 64.3779C29.7407 64.1438 30.3285 64.1438 30.6812 64.3779Z" fill="#281A57"/>
<path d="M33.8551 62.5051C34.2077 62.7392 34.2077 62.9733 33.8551 63.2074C33.5024 63.4415 33.0322 63.4415 32.6795 63.2074C32.3269 62.9733 32.3269 62.7392 32.6795 62.5051C32.9147 62.271 33.5024 62.271 33.8551 62.5051Z" fill="#281A57"/>
<path d="M37.029 60.6323C37.3816 60.8664 37.3816 61.1005 37.029 61.3346C36.6763 61.5687 36.2061 61.5687 35.8535 61.3346C35.5008 61.1005 35.5008 60.8664 35.8535 60.6323C36.0886 60.5152 36.6763 60.5152 37.029 60.6323C37.3816 60.8664 36.6763 60.5152 37.029 60.6323Z" fill="#281A57"/>
<path d="M30.6812 60.6323C31.0338 60.8664 31.0338 61.1005 30.6812 61.3346C30.3285 61.5687 29.8583 61.5687 29.5056 61.3346C29.153 61.1005 29.153 60.8664 29.5056 60.6323C29.7407 60.5152 30.3285 60.5152 30.6812 60.6323Z" fill="#281A57"/>
<path d="M33.8551 58.8765C34.2077 59.1106 34.2077 59.3447 33.8551 59.5788C33.5024 59.8129 33.0322 59.8129 32.6795 59.5788C32.3269 59.3447 32.3269 59.1106 32.6795 58.8765C32.9147 58.6424 33.5024 58.6424 33.8551 58.8765Z" fill="#281A57"/>
<path d="M72.0596 124.542C72.4122 124.776 72.4122 125.01 72.0596 125.244C71.7069 125.478 71.2367 125.478 70.8841 125.244C70.5314 125.01 70.5314 124.776 70.8841 124.542C71.2367 124.425 71.7069 124.425 72.0596 124.542Z" fill="#281A57"/>
<path d="M75.2335 122.786C75.5862 123.02 75.5862 123.254 75.2335 123.488C74.8808 123.723 74.4106 123.723 74.058 123.488C73.7053 123.254 73.7053 123.02 74.058 122.786C74.4106 122.552 74.8808 122.552 75.2335 122.786Z" fill="#281A57"/>
<path d="M65.7118 124.542C66.0644 124.776 66.0644 125.01 65.7118 125.244C65.3591 125.478 64.8889 125.478 64.5362 125.244C64.1836 125.01 64.1836 124.776 64.5362 124.542C64.8889 124.425 65.3591 124.425 65.7118 124.542Z" fill="#281A57"/>
<path d="M68.8857 122.786C69.2383 123.02 69.2383 123.254 68.8857 123.488C68.533 123.723 68.0628 123.723 67.7101 123.488C67.3575 123.254 67.3575 123.02 67.7101 122.786C68.0628 122.552 68.533 122.552 68.8857 122.786Z" fill="#281A57"/>
<path d="M72.0596 120.913C72.4122 121.147 72.4122 121.382 72.0596 121.616C71.7069 121.85 71.2367 121.85 70.8841 121.616C70.5314 121.382 70.5314 121.147 70.8841 120.913C71.2367 120.679 71.7069 120.679 72.0596 120.913Z" fill="#281A57"/>
<path d="M62.5378 122.786C62.8905 123.02 62.8905 123.254 62.5378 123.488C62.1852 123.723 61.715 123.723 61.3623 123.488C61.0097 123.254 61.0097 123.02 61.3623 122.786C61.715 122.552 62.1852 122.552 62.5378 122.786Z" fill="#281A57"/>
<path d="M65.7118 120.913C66.0644 121.147 66.0644 121.382 65.7118 121.616C65.3591 121.85 64.8889 121.85 64.5362 121.616C64.1836 121.382 64.1836 121.147 64.5362 120.913C64.8889 120.679 65.3591 120.679 65.7118 120.913Z" fill="#281A57"/>
<path d="M68.8857 119.041C69.2383 119.275 69.2383 119.509 68.8857 119.743C68.533 119.977 68.0628 119.977 67.7101 119.743C67.3575 119.509 67.3575 119.275 67.7101 119.041C68.0628 118.924 68.533 118.924 68.8857 119.041Z" fill="#281A57"/>
<path d="M59.3639 120.913C59.7166 121.147 59.7166 121.382 59.3639 121.616C59.0113 121.85 58.5411 121.85 58.1884 121.616C57.8358 121.382 57.8358 121.147 58.1884 120.913C58.5411 120.679 59.0113 120.679 59.3639 120.913Z" fill="#281A57"/>
<path d="M62.5378 119.041C62.8905 119.275 62.8905 119.509 62.5378 119.743C62.1852 119.977 61.715 119.977 61.3623 119.743C61.0097 119.509 61.0097 119.275 61.3623 119.041C61.715 118.924 62.1852 118.924 62.5378 119.041Z" fill="#281A57"/>
<path d="M65.7118 117.285C66.0644 117.519 66.0644 117.753 65.7118 117.987C65.3591 118.221 64.8889 118.221 64.5362 117.987C64.1836 117.753 64.1836 117.519 64.5362 117.285C64.8889 117.051 65.3591 117.051 65.7118 117.285Z" fill="#281A57"/>
<path d="M59.3639 117.285C59.7166 117.519 59.7166 117.753 59.3639 117.987C59.0113 118.221 58.5411 118.221 58.1884 117.987C57.8358 117.753 57.8358 117.519 58.1884 117.285C58.5411 117.051 59.0113 117.051 59.3639 117.285Z" fill="#281A57"/>
<path d="M62.5378 115.412C62.8905 115.646 62.8905 115.88 62.5378 116.114C62.1852 116.348 61.715 116.348 61.3623 116.114C61.0097 115.88 61.0097 115.646 61.3623 115.412C61.715 115.178 62.1852 115.178 62.5378 115.412Z" fill="#281A57"/>
<path d="M59.3639 113.539C59.7166 113.773 59.7166 114.007 59.3639 114.241C59.0113 114.476 58.5411 114.476 58.1884 114.241C57.8358 114.124 59.0113 113.422 59.3639 113.539Z" fill="#281A57"/>
<path d="M27.6248 117.285C27.9775 117.519 27.9775 117.753 27.6248 117.987C27.2721 118.221 26.8019 118.221 26.4493 117.987C26.0966 117.753 26.0966 117.519 26.4493 117.285C26.6844 117.051 27.2721 117.051 27.6248 117.285Z" fill="#281A57"/>
<path d="M30.7987 115.412C31.1514 115.646 31.1514 115.88 30.7987 116.114C30.4461 116.348 29.9758 116.348 29.6232 116.114C29.2705 115.88 29.2705 115.646 29.6232 115.412C29.8583 115.178 30.4461 115.178 30.7987 115.412Z" fill="#281A57"/>
<path d="M33.9726 113.539C34.3253 113.773 34.3253 114.007 33.9726 114.241C33.62 114.476 33.1498 114.476 32.7971 114.241C32.4444 114.007 32.4444 113.773 32.7971 113.539C33.0322 113.422 33.62 113.422 33.9726 113.539Z" fill="#281A57"/>
<path d="M37.1465 111.783C37.4992 112.018 37.4992 112.252 37.1465 112.486C36.7939 112.72 36.3237 112.72 35.971 112.486C35.6184 112.252 35.6184 112.018 35.971 111.783C36.2061 111.549 36.7939 111.549 37.1465 111.783Z" fill="#281A57"/>
<path d="M40.3205 109.911C40.6731 110.145 40.6731 110.379 40.3205 110.613C39.9678 110.847 39.4976 110.847 39.1449 110.613C38.7923 110.379 38.7923 110.145 39.1449 109.911C39.38 109.677 39.9678 109.677 40.3205 109.911Z" fill="#281A57"/>
<path d="M43.4944 108.155C43.847 108.389 43.847 108.623 43.4944 108.857C43.1417 109.091 42.6715 109.091 42.3188 108.857C41.9662 108.623 41.9662 108.389 42.3188 108.155C42.554 107.921 43.1417 107.921 43.4944 108.155Z" fill="#281A57"/>
<path d="M46.6683 106.282C47.0209 106.516 47.0209 106.75 46.6683 106.984C46.3156 107.218 45.8454 107.218 45.4928 106.984C45.1401 106.75 45.1401 106.516 45.4928 106.282C45.7279 106.048 46.3156 106.048 46.6683 106.282Z" fill="#281A57"/>
<path d="M21.1594 117.285C21.5121 117.519 21.5121 117.753 21.1594 117.987C20.8068 118.221 20.3366 118.221 19.9839 117.987C19.6312 117.753 19.6312 117.519 19.9839 117.285C20.3366 117.051 20.9243 117.051 21.1594 117.285Z" fill="#281A57"/>
<path d="M24.3333 115.412C24.686 115.646 24.686 115.88 24.3333 116.114C23.9807 116.348 23.5105 116.348 23.1578 116.114C22.8052 115.88 22.8052 115.646 23.1578 115.412C23.5105 115.178 24.0982 115.178 24.3333 115.412Z" fill="#281A57"/>
<path d="M27.6248 113.539C27.9775 113.773 27.9775 114.007 27.6248 114.241C27.2721 114.476 26.8019 114.476 26.4493 114.241C26.0966 114.007 26.0966 113.773 26.4493 113.539C26.6844 113.422 27.2721 113.422 27.6248 113.539Z" fill="#281A57"/>
<path d="M30.7987 111.783C31.1514 112.018 31.1514 112.252 30.7987 112.486C30.4461 112.72 29.9758 112.72 29.6232 112.486C29.2705 112.252 29.2705 112.018 29.6232 111.783C29.8583 111.549 30.4461 111.549 30.7987 111.783Z" fill="#281A57"/>
<path d="M33.9726 109.911C34.3253 110.145 34.3253 110.379 33.9726 110.613C33.62 110.847 33.1498 110.847 32.7971 110.613C32.4444 110.379 32.4444 110.145 32.7971 109.911C33.0322 109.677 33.62 109.677 33.9726 109.911Z" fill="#281A57"/>
<path d="M37.1465 108.155C37.4992 108.389 37.4992 108.623 37.1465 108.857C36.7939 109.091 36.3237 109.091 35.971 108.857C35.6184 108.623 35.6184 108.389 35.971 108.155C36.2061 107.921 36.7939 107.921 37.1465 108.155Z" fill="#281A57"/>
<path d="M40.3205 106.282C40.6731 106.516 40.6731 106.75 40.3205 106.984C39.9678 107.218 39.4976 107.218 39.1449 106.984C38.7923 106.75 38.7923 106.516 39.1449 106.282C39.38 106.048 39.9678 106.048 40.3205 106.282Z" fill="#281A57"/>
<path d="M43.4944 104.409C43.847 104.643 43.847 104.877 43.4944 105.112C43.1417 105.346 42.6715 105.346 42.3188 105.112C41.9662 104.877 41.9662 104.643 42.3188 104.409C42.554 104.292 43.1417 104.292 43.4944 104.409Z" fill="#281A57"/>
<path d="M14.8116 117.285C15.1642 117.519 15.1642 117.753 14.8116 117.987C14.4589 118.221 13.9887 118.221 13.6361 117.987C13.2834 117.753 13.2834 117.519 13.6361 117.285C13.9887 117.051 14.5765 117.051 14.8116 117.285Z" fill="#281A57"/>
<path d="M17.9855 115.412C18.3382 115.646 18.3382 115.88 17.9855 116.114C17.6329 116.348 17.1626 116.348 16.81 116.114C16.4573 115.88 16.4573 115.646 16.81 115.412C17.1626 115.178 17.7504 115.178 17.9855 115.412Z" fill="#281A57"/>
<path d="M21.1594 113.539C21.5121 113.773 21.5121 114.007 21.1594 114.241C20.8068 114.476 20.3366 114.476 19.9839 114.241C19.6312 114.007 19.6312 113.773 19.9839 113.539C20.3366 113.422 20.9243 113.422 21.1594 113.539Z" fill="#281A57"/>
<path d="M11.6377 115.412C11.9903 115.646 11.9903 115.88 11.6377 116.114C11.285 116.348 10.8148 116.348 10.4622 116.114C10.1095 115.88 10.1095 115.646 10.4622 115.412C10.8148 115.178 11.285 115.178 11.6377 115.412Z" fill="#281A57"/>
<path d="M14.8116 113.539C15.1642 113.773 15.1642 114.007 14.8116 114.241C14.4589 114.476 13.9887 114.476 13.6361 114.241C13.2834 114.007 13.2834 113.773 13.6361 113.539C13.9887 113.422 14.5765 113.422 14.8116 113.539Z" fill="#281A57"/>
<path d="M8.46377 113.539C8.81642 113.773 8.81642 114.007 8.46377 114.241C8.11111 114.476 7.6409 114.476 7.28824 114.241C6.93559 114.007 6.93559 113.773 7.28824 113.539C7.6409 113.305 8.11111 113.422 8.46377 113.539Z" fill="#281A57"/>
<path d="M11.6377 111.783C11.9903 112.018 11.9903 112.252 11.6377 112.486C11.285 112.72 10.8148 112.72 10.4622 112.486C10.1095 112.252 10.1095 112.018 10.4622 111.783C10.8148 111.549 11.285 111.549 11.6377 111.783Z" fill="#281A57"/>
<path d="M5.28985 111.783C5.64251 112.018 5.64251 112.252 5.28985 112.486C4.9372 112.72 4.46699 112.72 4.11433 112.486C3.76167 112.252 3.76167 112.018 4.11433 111.783C4.46699 111.549 4.9372 111.549 5.28985 111.783Z" fill="#281A57"/>
<path d="M8.46377 109.911C8.81642 110.145 8.81642 110.379 8.46377 110.613C8.11111 110.847 7.6409 110.847 7.28824 110.613C6.93559 110.379 6.93559 110.145 7.28824 109.911C7.6409 109.677 8.11111 109.677 8.46377 109.911Z" fill="#281A57"/>
<path d="M2.11594 109.911C2.4686 110.145 2.4686 110.379 2.11594 110.613C1.76329 110.847 1.29308 110.847 0.940419 110.613C0.587762 110.379 0.587762 110.145 0.940419 109.911C1.29308 109.677 1.76329 109.677 2.11594 109.911Z" fill="#281A57"/>
<path d="M5.28985 108.038C5.64251 108.272 5.64251 108.506 5.28985 108.74C4.9372 108.974 4.46699 108.974 4.11433 108.74C3.76167 108.506 3.76167 108.272 4.11433 108.038C4.46699 107.921 4.9372 107.921 5.28985 108.038Z" fill="#281A57"/>
<path d="M2.11594 106.282C2.4686 106.516 2.4686 106.75 2.11594 106.984C1.76329 107.218 1.29308 107.218 0.940419 106.984C0.587762 106.75 0.587762 106.516 0.940419 106.282C1.29308 106.048 1.76329 106.048 2.11594 106.282Z" fill="#281A57"/>
<path d="M7.28824 102.653C7.6409 102.419 8.11111 102.419 8.46377 102.653C8.81642 102.888 8.81642 103.122 8.46377 103.356C8.11111 103.473 6.93559 102.771 7.28824 102.653Z" fill="#281A57"/>
<path d="M11.6377 100.781C11.9903 101.015 11.9903 101.249 11.6377 101.483C11.285 101.717 10.8148 101.717 10.4622 101.483C10.1095 101.249 10.1095 101.015 10.4622 100.781C10.8148 100.547 11.285 100.547 11.6377 100.781Z" fill="#281A57"/>
<path d="M14.8116 98.9078C15.1642 99.1419 15.1642 99.376 14.8116 99.6101C14.4589 99.8442 13.9887 99.8442 13.6361 99.6101C13.2834 99.376 13.2834 99.1419 13.6361 98.9078C13.9887 98.7908 14.4589 98.7908 14.8116 98.9078Z" fill="#281A57"/>
<path d="M17.9855 97.1521C18.3382 97.3862 18.3382 97.6203 17.9855 97.8544C17.6329 98.0885 17.1626 98.0885 16.81 97.8544C16.4573 97.6203 16.4573 97.3862 16.81 97.1521C17.1626 96.918 17.6329 96.918 17.9855 97.1521Z" fill="#281A57"/>
<path d="M21.1594 95.2793C21.5121 95.5134 21.5121 95.7475 21.1594 95.9816C20.8068 96.2157 20.3366 96.2157 19.9839 95.9816C19.6312 95.7475 19.6312 95.5134 19.9839 95.2793C20.3366 95.0452 20.8068 95.0452 21.1594 95.2793Z" fill="#281A57"/>
<path d="M24.3333 93.5235C24.686 93.7576 24.686 93.9917 24.3333 94.2258C23.9807 94.4599 23.5105 94.4599 23.1578 94.2258C22.8052 93.9917 22.8052 93.7576 23.1578 93.5235C23.5105 93.2894 23.9807 93.2894 24.3333 93.5235Z" fill="#281A57"/>
<path d="M78.4074 121.616C78.0548 121.85 77.5846 121.85 77.2319 121.616C76.8792 121.382 76.8792 121.147 77.2319 120.913C77.5846 120.679 78.0548 120.679 78.4074 120.913C78.7601 121.147 78.7601 121.382 78.4074 121.616C78.1723 121.85 78.7601 121.382 78.4074 121.616Z" fill="#281A57"/>
<path d="M81.5813 119.158C81.934 119.392 81.934 119.626 81.5813 119.86C81.2287 120.094 80.7585 120.094 80.4058 119.86C80.0531 119.626 80.0531 119.392 80.4058 119.158C80.7585 118.923 81.3462 118.923 81.5813 119.158Z" fill="#281A57"/>
<path d="M84.7552 117.285C85.1079 117.519 85.1079 117.753 84.7552 117.987C84.4026 118.221 83.9324 118.221 83.5797 117.987C83.2271 117.753 83.2271 117.519 83.5797 117.285C83.9324 117.051 84.5201 117.051 84.7552 117.285Z" fill="#281A57"/>
<path d="M87.9292 115.412C88.2818 115.646 88.2818 115.88 87.9292 116.114C87.5765 116.348 87.1063 116.348 86.7536 116.114C86.401 115.88 86.401 115.646 86.7536 115.412C87.1063 115.295 87.6941 115.295 87.9292 115.412Z" fill="#281A57"/>
<path d="M91.1031 113.656C91.4557 113.89 91.4557 114.124 91.1031 114.359C90.7504 114.593 90.2802 114.593 89.9275 114.359C89.5749 114.124 89.5749 113.89 89.9275 113.656C90.2802 113.422 90.868 113.422 91.1031 113.656Z" fill="#281A57"/>
<path d="M94.3945 111.783C94.7472 112.018 94.7472 112.252 94.3945 112.486C94.0419 112.72 93.5717 112.72 93.219 112.486C92.8663 112.252 92.8663 112.018 93.219 111.783C93.4541 111.549 94.0419 111.549 94.3945 111.783Z" fill="#281A57"/>
<path d="M97.5685 110.028C97.9211 110.262 97.9211 110.496 97.5685 110.73C97.2158 110.964 96.7456 110.964 96.3929 110.73C96.0403 110.496 96.0403 110.262 96.3929 110.028C96.628 109.794 97.2158 109.794 97.5685 110.028Z" fill="#281A57"/>
<path d="M100.742 108.155C101.095 108.389 101.095 108.623 100.742 108.857C100.39 109.091 99.9195 109.091 99.5668 108.857C99.2142 108.623 99.2142 108.389 99.5668 108.155C99.8019 107.921 100.39 107.921 100.742 108.155Z" fill="#281A57"/>
<path d="M103.916 106.282C104.269 106.516 104.269 106.75 103.916 106.984C103.564 107.218 103.093 107.218 102.741 106.984C102.388 106.75 102.388 106.516 102.741 106.282C102.976 106.165 103.564 106.165 103.916 106.282Z" fill="#281A57"/>
<path d="M107.09 104.526C107.443 104.76 107.443 104.994 107.09 105.229C106.738 105.463 106.267 105.463 105.915 105.229C105.562 104.994 105.562 104.76 105.915 104.526C106.15 104.292 106.738 104.292 107.09 104.526Z" fill="#281A57"/>
<path d="M74.058 119.158C74.4106 118.923 74.8808 118.923 75.2335 119.158C75.5862 119.392 75.5862 119.626 75.2335 119.86C74.8808 120.094 74.4106 120.094 74.058 119.86C73.7053 119.626 73.7053 119.275 74.058 119.158Z" fill="#281A57"/>
<path d="M78.4074 117.285C78.7601 117.519 78.7601 117.753 78.4074 117.987C78.0548 118.221 77.5846 118.221 77.2319 117.987C76.8792 117.753 76.8792 117.519 77.2319 117.285C77.5846 117.051 78.1723 117.051 78.4074 117.285Z" fill="#281A57"/>
<path d="M81.5813 115.412C81.934 115.646 81.934 115.88 81.5813 116.114C81.2287 116.348 80.7585 116.348 80.4058 116.114C80.0531 115.88 80.0531 115.646 80.4058 115.412C80.7585 115.295 81.3462 115.295 81.5813 115.412Z" fill="#281A57"/>
<path d="M84.7552 113.656C85.1079 113.89 85.1079 114.124 84.7552 114.359C84.4026 114.593 83.9324 114.593 83.5797 114.359C83.2271 114.124 83.2271 113.89 83.5797 113.656C83.9324 113.422 84.5201 113.422 84.7552 113.656Z" fill="#281A57"/>
<path d="M87.9292 111.783C88.2818 112.018 88.2818 112.252 87.9292 112.486C87.5765 112.72 87.1063 112.72 86.7536 112.486C86.401 112.252 86.401 112.018 86.7536 111.783C87.1063 111.549 87.6941 111.549 87.9292 111.783Z" fill="#281A57"/>
<path d="M91.1031 110.028C91.4557 110.262 91.4557 110.496 91.1031 110.73C90.7504 110.964 90.2802 110.964 89.9275 110.73C89.5749 110.496 89.5749 110.262 89.9275 110.028C90.2802 109.794 90.868 109.794 91.1031 110.028Z" fill="#281A57"/>
<path d="M94.3945 108.155C94.7472 108.389 94.7472 108.623 94.3945 108.857C94.0419 109.091 93.5717 109.091 93.219 108.857C92.8663 108.623 92.8663 108.389 93.219 108.155C93.4541 107.921 94.0419 107.921 94.3945 108.155Z" fill="#281A57"/>
<path d="M97.5685 106.282C97.9211 106.516 97.9211 106.75 97.5685 106.984C97.2158 107.218 96.7456 107.218 96.3929 106.984C96.0403 106.75 96.0403 106.516 96.3929 106.282C96.628 106.165 97.2158 106.165 97.5685 106.282Z" fill="#281A57"/>
<path d="M100.742 104.526C101.095 104.76 101.095 104.994 100.742 105.229C100.39 105.463 99.9195 105.463 99.5668 105.229C99.2142 104.994 99.2142 104.76 99.5668 104.526C99.8019 104.292 100.39 104.292 100.742 104.526Z" fill="#281A57"/>
<path d="M103.916 102.653C104.269 102.888 104.269 103.122 103.916 103.356C103.564 103.59 103.093 103.59 102.741 103.356C102.388 103.122 102.388 102.888 102.741 102.653C102.976 102.419 103.564 102.419 103.916 102.653Z" fill="#281A57"/>
<path d="M70.8841 117.285C71.2367 117.051 71.7069 117.051 72.0596 117.285C72.4122 117.519 72.4122 117.753 72.0596 117.987C71.7069 118.221 71.2367 118.221 70.8841 117.987C70.5314 117.753 70.5314 117.519 70.8841 117.285Z" fill="#281A57"/>
<path d="M75.2335 115.412C75.5862 115.646 75.5862 115.88 75.2335 116.114C74.8808 116.348 74.4106 116.348 74.058 116.114C73.7053 115.88 73.7053 115.646 74.058 115.412C74.4106 115.295 74.8808 115.295 75.2335 115.412Z" fill="#281A57"/>
<path d="M78.4074 113.656C78.7601 113.89 78.7601 114.124 78.4074 114.359C78.0548 114.593 77.5846 114.593 77.2319 114.359C76.8792 114.124 76.8792 113.89 77.2319 113.656C77.5846 113.422 78.1723 113.422 78.4074 113.656Z" fill="#281A57"/>
<path d="M81.5813 111.783C81.934 112.018 81.934 112.252 81.5813 112.486C81.2287 112.72 80.7585 112.72 80.4058 112.486C80.0531 112.252 80.0531 112.018 80.4058 111.783C80.7585 111.549 81.3462 111.549 81.5813 111.783Z" fill="#281A57"/>
<path d="M84.7552 110.028C85.1079 110.262 85.1079 110.496 84.7552 110.73C84.4026 110.964 83.9324 110.964 83.5797 110.73C83.2271 110.496 83.2271 110.262 83.5797 110.028C83.9324 109.794 84.5201 109.794 84.7552 110.028Z" fill="#281A57"/>
<path d="M86.7536 108.155C87.1063 107.921 87.5765 107.921 87.9292 108.155C88.2818 108.389 88.2818 108.623 87.9292 108.857C87.5765 109.091 87.1063 109.091 86.7536 108.857C86.401 108.623 86.401 108.389 86.7536 108.155C87.1063 107.921 86.401 108.389 86.7536 108.155Z" fill="#281A57"/>
<path d="M91.1031 106.282C91.4557 106.516 91.4557 106.75 91.1031 106.984C90.7504 107.218 90.2802 107.218 89.9275 106.984C89.5749 106.75 89.5749 106.516 89.9275 106.282C90.2802 106.165 90.868 106.165 91.1031 106.282Z" fill="#281A57"/>
<path d="M94.3945 104.526C94.7472 104.76 94.7472 104.994 94.3945 105.229C94.0419 105.463 93.5717 105.463 93.219 105.229C92.8663 104.994 92.8663 104.76 93.219 104.526C93.4541 104.292 94.0419 104.292 94.3945 104.526Z" fill="#281A57"/>
<path d="M97.5685 102.653C97.9211 102.888 97.9211 103.122 97.5685 103.356C97.2158 103.59 96.7456 103.59 96.3929 103.356C96.0403 103.122 96.0403 102.888 96.3929 102.653C96.628 102.419 97.2158 102.419 97.5685 102.653Z" fill="#281A57"/>
<path d="M67.7101 115.412C68.0628 115.178 68.533 115.178 68.8857 115.412C69.2383 115.646 69.2383 115.88 68.8857 116.114C68.533 116.348 68.0628 116.348 67.7101 116.114C67.3575 115.997 67.3575 115.646 67.7101 115.412Z" fill="#281A57"/>
<path d="M65.7118 114.359C65.3591 114.593 64.8889 114.593 64.5362 114.359C64.1836 114.124 64.1836 113.89 64.5362 113.656C64.8889 113.422 66.0644 114.124 65.7118 114.359Z" fill="#281A57"/>
<path d="M65.7118 109.911C66.0644 110.145 66.0644 110.379 65.7118 110.613C65.3591 110.847 64.8889 110.847 64.5362 110.613C64.1836 110.379 64.1836 110.145 64.5362 109.911C64.8889 109.794 65.3591 109.794 65.7118 109.911Z" fill="#281A57"/>
<path d="M68.8857 108.155C69.2383 108.389 69.2383 108.623 68.8857 108.857C68.533 109.091 68.0628 109.091 67.7101 108.857C67.3575 108.623 67.3575 108.389 67.7101 108.155C68.0628 107.921 68.533 107.921 68.8857 108.155Z" fill="#281A57"/>
<path d="M72.0596 106.282C72.4122 106.516 72.4122 106.75 72.0596 106.984C71.7069 107.218 71.2367 107.218 70.8841 106.984C70.5314 106.75 70.5314 106.516 70.8841 106.282C71.2367 106.048 71.7069 106.048 72.0596 106.282Z" fill="#281A57"/>
<path d="M75.2335 104.526C75.5862 104.76 75.5862 104.994 75.2335 105.229C74.8808 105.463 74.4106 105.463 74.058 105.229C73.7053 104.994 73.7053 104.76 74.058 104.526C74.4106 104.292 74.8808 104.292 75.2335 104.526Z" fill="#281A57"/>
<path d="M78.4074 102.653C78.7601 102.888 78.7601 103.122 78.4074 103.356C78.0548 103.59 77.5846 103.59 77.2319 103.356C76.8792 103.122 76.8792 102.888 77.2319 102.653C77.5846 102.419 78.0548 102.419 78.4074 102.653Z" fill="#281A57"/>
<path d="M81.5813 100.781C81.934 101.015 81.934 101.249 81.5813 101.483C81.2287 101.717 80.7585 101.717 80.4058 101.483C80.0531 101.249 80.0531 101.015 80.4058 100.781C80.7585 100.664 81.2287 100.664 81.5813 100.781Z" fill="#281A57"/>
<path d="M84.7552 99.0249C85.1079 99.259 85.1079 99.4931 84.7552 99.7272C84.4026 99.9613 83.9324 99.9613 83.5797 99.7272C83.2271 99.4931 83.2271 99.259 83.5797 99.0249C83.9324 98.7908 84.4026 98.7908 84.7552 99.0249Z" fill="#281A57"/>
<path d="M87.9292 97.1521C88.2818 97.3862 88.2818 97.6203 87.9292 97.8544C87.5765 98.0885 87.1063 98.0885 86.7536 97.8544C86.401 97.6203 86.401 97.3862 86.7536 97.1521C87.1063 96.918 87.5765 96.918 87.9292 97.1521Z" fill="#281A57"/>
<path d="M62.5378 108.155C62.8905 108.389 62.8905 108.623 62.5378 108.857C62.1852 109.091 61.715 109.091 61.3623 108.857C61.0097 108.623 61.0097 108.389 61.3623 108.155C61.5974 107.921 62.1852 107.921 62.5378 108.155Z" fill="#281A57"/>
<path d="M65.7118 106.282C66.0644 106.516 66.0644 106.75 65.7118 106.984C65.3591 107.218 64.8889 107.218 64.5362 106.984C64.1836 106.75 64.1836 106.516 64.5362 106.282C64.8889 106.048 65.3591 106.048 65.7118 106.282Z" fill="#281A57"/>
<path d="M68.8857 104.526C69.2383 104.76 69.2383 104.994 68.8857 105.229C68.533 105.463 68.0628 105.463 67.7101 105.229C67.3575 104.994 67.3575 104.76 67.7101 104.526C68.0628 104.292 68.533 104.292 68.8857 104.526Z" fill="#281A57"/>
<path d="M72.0596 102.653C72.4122 102.888 72.4122 103.122 72.0596 103.356C71.7069 103.59 71.2367 103.59 70.8841 103.356C70.5314 103.122 70.5314 102.888 70.8841 102.653C71.2367 102.419 71.7069 102.419 72.0596 102.653Z" fill="#281A57"/>
<path d="M75.2335 100.781C75.5862 101.015 75.5862 101.249 75.2335 101.483C74.8808 101.717 74.4106 101.717 74.058 101.483C73.7053 101.249 73.7053 101.015 74.058 100.781C74.4106 100.664 74.8808 100.664 75.2335 100.781Z" fill="#281A57"/>
<path d="M78.4074 99.0249C78.7601 99.259 78.7601 99.4931 78.4074 99.7272C78.0548 99.9613 77.5846 99.9613 77.2319 99.7272C76.8792 99.4931 76.8792 99.259 77.2319 99.0249C77.5846 98.7908 78.0548 98.7908 78.4074 99.0249Z" fill="#281A57"/>
<path d="M81.5813 97.1521C81.934 97.3862 81.934 97.6203 81.5813 97.8544C81.2287 98.0885 80.7585 98.0885 80.4058 97.8544C80.0531 97.6203 80.0531 97.3862 80.4058 97.1521C80.7585 96.918 81.2287 96.918 81.5813 97.1521Z" fill="#281A57"/>
<path d="M84.7552 95.2793C85.1079 95.5134 85.1079 95.7475 84.7552 95.9816C84.4026 96.2157 83.9324 96.2157 83.5797 95.9816C83.2271 95.7475 83.2271 95.5134 83.5797 95.2793C83.9324 95.1622 84.4026 95.1622 84.7552 95.2793Z" fill="#281A57"/>
<path d="M87.9292 93.5235C88.2818 93.7576 88.2818 93.9917 87.9292 94.2258C87.5765 94.4599 87.1063 94.4599 86.7536 94.2258C86.401 93.9917 86.401 93.7576 86.7536 93.5235C87.1063 93.2894 87.5765 93.2894 87.9292 93.5235Z" fill="#281A57"/>
<path d="M58.1884 106.282C58.5411 106.048 59.0113 106.048 59.3639 106.282C59.7166 106.516 59.7166 106.75 59.3639 106.984C59.0113 107.218 58.5411 107.218 58.1884 106.984C57.8358 106.75 57.8358 106.516 58.1884 106.282Z" fill="#281A57"/>
<path d="M62.5378 104.526C62.8905 104.76 62.8905 104.994 62.5378 105.229C62.1852 105.463 61.715 105.463 61.3623 105.229C61.0097 104.994 61.0097 104.76 61.3623 104.526C61.5974 104.292 62.1852 104.292 62.5378 104.526Z" fill="#281A57"/>
<path d="M64.5362 102.653C64.8889 102.419 65.3591 102.419 65.7118 102.653C66.0644 102.888 66.0644 103.122 65.7118 103.356C65.3591 103.59 64.8889 103.59 64.5362 103.356C64.1836 103.122 64.1836 102.888 64.5362 102.653C64.8889 102.419 64.1836 102.888 64.5362 102.653Z" fill="#281A57"/>
<path d="M68.8857 100.781C69.2383 101.015 69.2383 101.249 68.8857 101.483C68.533 101.717 68.0628 101.717 67.7102 101.483C67.3575 101.366 68.533 100.664 68.8857 100.781Z" fill="#281A57"/>
<path d="M72.0596 99.0249C72.4122 99.259 72.4122 99.4931 72.0596 99.7272C71.7069 99.9613 71.2367 99.9613 70.8841 99.7272C70.5314 99.4931 71.7069 98.7908 72.0596 99.0249Z" fill="#281A57"/>
<path d="M80.4058 94.2258C80.0531 93.9917 80.0531 93.7576 80.4058 93.5235C80.7585 93.2894 81.2287 93.2894 81.5813 93.5235C81.934 93.7576 80.7585 94.3429 80.4058 94.2258Z" fill="#281A57"/>
<path d="M78.4074 91.6507C78.7601 91.8848 78.7601 92.1189 78.4074 92.353C78.0548 92.5871 77.5846 92.5871 77.2319 92.353C76.8792 92.1189 76.8792 91.8848 77.2319 91.6507C77.5846 91.5336 78.0548 91.5336 78.4074 91.6507Z" fill="#281A57"/>
<path d="M81.5813 89.8949C81.934 90.129 81.934 90.3631 81.5813 90.5972C81.2287 90.8313 80.7585 90.8313 80.4058 90.5972C80.0531 90.3631 80.0531 90.129 80.4058 89.8949C80.7585 89.6608 81.2287 89.6608 81.5813 89.8949Z" fill="#281A57"/>
<path d="M48.5491 104.526C48.9018 104.292 49.372 104.292 49.7246 104.526C50.0773 104.76 50.0773 104.994 49.7246 105.229C49.372 105.463 48.9018 105.463 48.5491 105.229C48.314 104.994 48.314 104.643 48.5491 104.526Z" fill="#281A57"/>
<path d="M53.0161 102.653C53.3688 102.888 53.3688 103.122 53.0161 103.356C52.6634 103.59 52.1932 103.59 51.8406 103.356C51.4879 103.122 51.4879 102.888 51.8406 102.653C52.0757 102.419 52.6634 102.419 53.0161 102.653Z" fill="#281A57"/>
<path d="M56.19 100.781C56.5427 101.015 56.5427 101.249 56.19 101.483C55.8374 101.717 55.3672 101.717 55.0145 101.483C54.6618 101.249 54.6618 101.015 55.0145 100.781C55.2496 100.664 55.8374 100.664 56.19 100.781Z" fill="#281A57"/>
<path d="M59.3639 99.0249C59.7166 99.259 59.7166 99.4931 59.3639 99.7272C59.0113 99.9613 58.5411 99.9613 58.1884 99.7272C57.8358 99.4931 57.8358 99.259 58.1884 99.0249C58.4235 98.7908 59.0113 98.7908 59.3639 99.0249Z" fill="#281A57"/>
<path d="M62.5378 97.1521C62.8905 97.3862 62.8905 97.6203 62.5378 97.8544C62.1852 98.0885 61.715 98.0885 61.3623 97.8544C61.0097 97.6203 61.0097 97.3862 61.3623 97.1521C61.5974 96.918 62.1852 96.918 62.5378 97.1521Z" fill="#281A57"/>
<path d="M65.7118 95.2793C66.0644 95.5134 66.0644 95.7475 65.7118 95.9816C65.3591 96.2157 64.8889 96.2157 64.5362 95.9816C64.1836 95.7475 64.1836 95.5134 64.5362 95.2793C64.8889 95.1622 65.3591 95.1622 65.7118 95.2793Z" fill="#281A57"/>
<path d="M68.8857 93.5235C69.2383 93.7576 69.2383 93.9917 68.8857 94.2258C68.533 94.4599 68.0628 94.4599 67.7101 94.2258C67.3575 93.9917 67.3575 93.7576 67.7101 93.5235C68.0628 93.2894 68.533 93.2894 68.8857 93.5235Z" fill="#281A57"/>
<path d="M72.0596 91.6507C72.4122 91.8848 72.4122 92.1189 72.0596 92.353C71.7069 92.5871 71.2367 92.5871 70.8841 92.353C70.5314 92.1189 70.5314 91.8848 70.8841 91.6507C71.2367 91.4166 71.7069 91.5336 72.0596 91.6507Z" fill="#281A57"/>
<path d="M75.2335 89.8949C75.5862 90.129 75.5862 90.3631 75.2335 90.5972C74.8808 90.8313 74.4106 90.8313 74.058 90.5972C73.7053 90.3631 73.7053 90.129 74.058 89.8949C74.4106 89.6608 74.8808 89.6608 75.2335 89.8949Z" fill="#281A57"/>
<path d="M78.4074 88.0221C78.7601 88.2562 78.7601 88.4903 78.4074 88.7244C78.0548 88.9585 77.5846 88.9585 77.2319 88.7244C76.8792 88.4903 76.8792 88.2562 77.2319 88.0221C77.5846 87.788 78.0548 87.788 78.4074 88.0221Z" fill="#281A57"/>
<path d="M45.3752 102.653C45.7279 102.419 46.1981 102.419 46.5507 102.653C46.9034 102.888 46.9034 103.122 46.5507 103.356C46.1981 103.59 45.7279 103.59 45.3752 103.356C45.1401 103.122 45.1401 102.888 45.3752 102.653Z" fill="#281A57"/>
<path d="M49.8422 100.781C50.1949 101.015 50.1949 101.249 49.8422 101.483C49.4895 101.717 49.0193 101.717 48.6667 101.483C48.314 101.249 48.314 101.015 48.6667 100.781C48.9018 100.664 49.4895 100.664 49.8422 100.781Z" fill="#281A57"/>
<path d="M53.0161 99.0249C53.3688 99.259 53.3688 99.4931 53.0161 99.7272C52.6634 99.9613 52.1932 99.9613 51.8406 99.7272C51.4879 99.4931 51.4879 99.259 51.8406 99.0249C52.1932 98.7908 52.6634 98.7908 53.0161 99.0249Z" fill="#281A57"/>
<path d="M56.19 97.1521C56.5427 97.3862 56.5427 97.6203 56.19 97.8544C55.8374 98.0885 55.3672 98.0885 55.0145 97.8544C54.6618 97.6203 54.6618 97.3862 55.0145 97.1521C55.2496 96.918 55.8374 96.918 56.19 97.1521Z" fill="#281A57"/>
<path d="M59.3639 95.2793C59.7166 95.5134 59.7166 95.7475 59.3639 95.9816C59.0113 96.2157 58.5411 96.2157 58.1884 95.9816C57.8358 95.7475 57.8358 95.5134 58.1884 95.2793C58.4235 95.1622 59.0113 95.1622 59.3639 95.2793Z" fill="#281A57"/>
<path d="M62.5378 93.5235C62.8905 93.7576 62.8905 93.9917 62.5378 94.2258C62.1852 94.4599 61.715 94.4599 61.3623 94.2258C61.0097 93.9917 61.0097 93.7576 61.3623 93.5235C61.5974 93.2894 62.1852 93.2894 62.5378 93.5235Z" fill="#281A57"/>
<path d="M65.7118 91.6507C66.0644 91.8848 66.0644 92.1189 65.7118 92.353C65.3591 92.5871 64.8889 92.5871 64.5362 92.353C64.1836 92.1189 64.1836 91.8848 64.5362 91.6507C64.8889 91.4166 65.3591 91.5336 65.7118 91.6507Z" fill="#281A57"/>
<path d="M68.8857 89.8949C69.2383 90.129 69.2383 90.3631 68.8857 90.5972C68.533 90.8313 68.0628 90.8313 67.7101 90.5972C67.3575 90.3631 67.3575 90.129 67.7101 89.8949C68.0628 89.6608 68.533 89.6608 68.8857 89.8949Z" fill="#281A57"/>
<path d="M72.0596 88.0221C72.4122 88.2562 72.4122 88.4903 72.0596 88.7244C71.7069 88.9585 71.2367 88.9585 70.8841 88.7244C70.5314 88.4903 70.5314 88.2562 70.8841 88.0221C71.2367 87.788 71.7069 87.788 72.0596 88.0221Z" fill="#281A57"/>
<path d="M75.2335 86.1493C75.5862 86.3834 75.5862 86.6175 75.2335 86.8516C74.8808 87.0857 74.4106 87.0857 74.058 86.8516C73.7053 86.6175 73.7053 86.3834 74.058 86.1493C74.4106 86.0323 74.8808 86.0323 75.2335 86.1493Z" fill="#281A57"/>
<path d="M75.2335 82.5207C75.5862 82.7548 75.5862 82.9889 75.2335 83.223C74.8808 83.4571 74.4106 83.4571 74.058 83.223C73.7053 82.9889 73.7053 82.7548 74.058 82.5207C74.4106 82.2866 74.8808 82.4037 75.2335 82.5207Z" fill="#281A57"/>
<path d="M78.4074 80.765C78.7601 80.9991 78.7601 81.2332 78.4074 81.4673C78.0548 81.7014 77.5846 81.7014 77.2319 81.4673C76.8792 81.2332 76.8792 80.9991 77.2319 80.765C77.5846 80.5309 78.0548 80.5309 78.4074 80.765Z" fill="#281A57"/>
<path d="M81.5813 78.8922C81.934 79.1263 81.934 79.3604 81.5813 79.5945C81.2287 79.8286 80.7585 79.8286 80.4058 79.5945C80.0531 79.3604 80.0531 79.1263 80.4058 78.8922C80.7585 78.6581 81.2287 78.6581 81.5813 78.8922Z" fill="#281A57"/>
<path d="M84.7552 77.0194C85.1079 77.2535 85.1079 77.4876 84.7552 77.7217C84.4026 77.9558 83.9324 77.9558 83.5797 77.7217C83.2271 77.4876 83.2271 77.2535 83.5797 77.0194C83.9324 76.9023 84.4026 76.9023 84.7552 77.0194Z" fill="#281A57"/>
<path d="M87.9292 75.2636C88.2818 75.4977 88.2818 75.7318 87.9292 75.9659C87.5765 76.2 87.1063 76.2 86.7536 75.9659C86.401 75.7318 86.401 75.4977 86.7536 75.2636C87.1063 75.0295 87.5765 75.0295 87.9292 75.2636Z" fill="#281A57"/>
<path d="M91.1031 73.3908C91.4557 73.6249 91.4557 73.859 91.1031 74.0931C90.7504 74.3272 90.2802 74.3272 89.9275 74.0931C89.5749 73.859 89.5749 73.6249 89.9275 73.3908C90.2802 73.2737 90.7504 73.2737 91.1031 73.3908Z" fill="#281A57"/>
<path d="M94.277 71.635C94.6296 71.8691 94.6296 72.1032 94.277 72.3373C93.9243 72.5714 93.4541 72.5714 93.1015 72.3373C92.7488 72.1032 92.7488 71.8691 93.1015 71.635C93.4541 71.4009 93.9243 71.4009 94.277 71.635Z" fill="#281A57"/>
<path d="M61.3623 86.8516C61.0097 86.6175 61.0097 86.3834 61.3623 86.1493C61.715 85.9152 62.1852 85.9152 62.5378 86.1493C62.8905 86.3834 62.8905 86.6175 62.5378 86.8516C62.1852 87.0857 61.5974 87.0857 61.3623 86.8516Z" fill="#281A57"/>
<path d="M65.7118 84.3935C66.0644 84.6276 66.0644 84.8617 65.7118 85.0958C65.3591 85.3299 64.8889 85.3299 64.5362 85.0958C64.1836 84.8617 64.1836 84.6276 64.5362 84.3935C64.8889 84.1594 65.3591 84.1594 65.7118 84.3935Z" fill="#281A57"/>
<path d="M68.8857 82.5207C69.2383 82.7548 69.2383 82.9889 68.8857 83.223C68.533 83.4571 68.0628 83.4571 67.7101 83.223C67.3575 82.9889 67.3575 82.7548 67.7101 82.5207C68.0628 82.4037 68.533 82.4037 68.8857 82.5207Z" fill="#281A57"/>
<path d="M72.0596 80.765C72.4122 80.9991 72.4122 81.2332 72.0596 81.4673C71.7069 81.7014 71.2367 81.7014 70.8841 81.4673C70.5314 81.2332 70.5314 80.9991 70.8841 80.765C71.2367 80.5309 71.7069 80.5309 72.0596 80.765Z" fill="#281A57"/>
<path d="M75.2335 78.8922C75.5862 79.1263 75.5862 79.3604 75.2335 79.5945C74.8808 79.8286 74.4106 79.8286 74.058 79.5945C73.7053 79.3604 73.7053 79.1263 74.058 78.8922C74.4106 78.6581 74.8808 78.6581 75.2335 78.8922Z" fill="#281A57"/>
<path d="M78.4074 77.0194C78.7601 77.2535 78.7601 77.4876 78.4074 77.7217C78.0548 77.9558 77.5846 77.9558 77.2319 77.7217C76.8792 77.4876 76.8792 77.2535 77.2319 77.0194C77.5846 76.9023 78.0548 76.9023 78.4074 77.0194Z" fill="#281A57"/>
<path d="M81.5813 75.2636C81.934 75.4977 81.934 75.7318 81.5813 75.9659C81.2287 76.2 80.7585 76.2 80.4058 75.9659C80.0531 75.7318 80.0531 75.4977 80.4058 75.2636C80.7585 75.0295 81.2287 75.0295 81.5813 75.2636Z" fill="#281A57"/>
<path d="M84.7552 73.3908C85.1079 73.6249 85.1079 73.859 84.7552 74.0931C84.4026 74.3272 83.9324 74.3272 83.5797 74.0931C83.2271 73.859 83.2271 73.6249 83.5797 73.3908C83.9324 73.2737 84.4026 73.2737 84.7552 73.3908Z" fill="#281A57"/>
<path d="M87.9292 71.635C88.2818 71.8691 88.2818 72.1032 87.9292 72.3373C87.5765 72.5714 87.1063 72.5714 86.7536 72.3373C86.401 72.1032 86.401 71.8691 86.7536 71.635C87.1063 71.4009 87.5765 71.4009 87.9292 71.635Z" fill="#281A57"/>
<path d="M91.1031 69.7622C91.4557 69.9963 91.4557 70.2304 91.1031 70.4645C90.7504 70.6986 90.2802 70.6986 89.9275 70.4645C89.5749 70.2304 89.5749 69.9963 89.9275 69.7622C90.2802 69.5281 90.7504 69.5281 91.1031 69.7622Z" fill="#281A57"/>
<path d="M59.3639 84.3935C59.7166 84.6276 59.7166 84.8617 59.3639 85.0958C59.0113 85.3299 58.5411 85.3299 58.1884 85.0958C57.8358 84.8617 57.8358 84.6276 58.1884 84.3935C58.4235 84.1594 59.0113 84.1594 59.3639 84.3935Z" fill="#281A57"/>
<path d="M62.5378 82.5207C62.8905 82.7548 62.8905 82.9889 62.5378 83.223C62.1852 83.4571 61.715 83.4571 61.3623 83.223C61.0097 82.9889 61.0097 82.7548 61.3623 82.5207C61.5974 82.2866 62.1852 82.2866 62.5378 82.5207Z" fill="#281A57"/>
<path d="M65.7118 80.6479C66.0644 80.882 66.0644 81.1161 65.7118 81.3502C65.3591 81.5843 64.8889 81.5843 64.5362 81.3502C64.1836 81.1161 64.1836 80.882 64.5362 80.6479C64.7713 80.5309 65.3591 80.5309 65.7118 80.6479Z" fill="#281A57"/>
<path d="M68.8857 78.8922C69.2383 79.1263 69.2383 79.3604 68.8857 79.5945C68.533 79.8286 68.0628 79.8286 67.7101 79.5945C67.3575 79.3604 67.3575 79.1263 67.7101 78.8922C67.9453 78.6581 68.533 78.6581 68.8857 78.8922Z" fill="#281A57"/>
<path d="M72.0596 77.0194C72.4122 77.2535 72.4122 77.4876 72.0596 77.7217C71.7069 77.9558 71.2367 77.9558 70.8841 77.7217C70.5314 77.4876 70.5314 77.2535 70.8841 77.0194C71.1192 76.9023 71.7069 76.9023 72.0596 77.0194Z" fill="#281A57"/>
<path d="M75.2335 75.2636C75.5862 75.4977 75.5862 75.7318 75.2335 75.9659C74.8808 76.2 74.4106 76.2 74.058 75.9659C73.7053 75.7318 73.7053 75.4977 74.058 75.2636C74.2931 75.0295 74.8808 75.0295 75.2335 75.2636Z" fill="#281A57"/>
<path d="M78.4074 73.3908C78.7601 73.6249 78.7601 73.859 78.4074 74.0931C78.0548 74.3272 77.5846 74.3272 77.2319 74.0931C76.8792 73.859 76.8792 73.6249 77.2319 73.3908C77.467 73.1567 78.0548 73.1567 78.4074 73.3908Z" fill="#281A57"/>
<path d="M81.5813 71.518C81.934 71.7521 81.934 71.9862 81.5813 72.2203C81.2287 72.4544 80.7585 72.4544 80.4058 72.2203C80.0531 71.9862 80.0531 71.7521 80.4058 71.518C80.6409 71.4009 81.2287 71.4009 81.5813 71.518Z" fill="#281A57"/>
<path d="M84.7552 69.7622C85.1079 69.9963 85.1079 70.2304 84.7552 70.4645C84.4026 70.6986 83.9324 70.6986 83.5797 70.4645C83.2271 70.2304 83.2271 69.9963 83.5797 69.7622C83.8148 69.5281 84.4026 69.5281 84.7552 69.7622Z" fill="#281A57"/>
<path d="M87.9292 67.8894C88.2818 68.1235 88.2818 68.3576 87.9292 68.5917C87.5765 68.8258 87.1063 68.8258 86.7536 68.5917C86.401 68.3576 86.401 68.1235 86.7536 67.8894C87.1063 67.7723 87.5765 67.7723 87.9292 67.8894Z" fill="#281A57"/>
<path d="M56.19 82.5207C56.5427 82.7548 56.5427 82.9889 56.19 83.223C55.8374 83.4571 55.3672 83.4571 55.0145 83.223C54.6618 82.9889 54.6618 82.7548 55.0145 82.5207C55.2496 82.2866 55.8374 82.2866 56.19 82.5207Z" fill="#281A57"/>
<path d="M59.3639 80.6479C59.7166 80.882 59.7166 81.1161 59.3639 81.3502C59.0113 81.5843 58.5411 81.5843 58.1884 81.3502C57.8358 81.1161 57.8358 80.882 58.1884 80.6479C58.4235 80.5309 59.0113 80.5309 59.3639 80.6479Z" fill="#281A57"/>
<path d="M62.5378 78.8922C62.8905 79.1263 62.8905 79.3604 62.5378 79.5945C62.1852 79.8286 61.715 79.8286 61.3623 79.5945C61.0097 79.3604 61.0097 79.1263 61.3623 78.8922C61.5974 78.6581 62.1852 78.6581 62.5378 78.8922Z" fill="#281A57"/>
<path d="M65.7118 77.0194C66.0644 77.2535 66.0644 77.4876 65.7118 77.7217C65.3591 77.9558 64.8889 77.9558 64.5362 77.7217C64.1836 77.4876 64.1836 77.2535 64.5362 77.0194C64.7713 76.9023 65.3591 76.9023 65.7118 77.0194Z" fill="#281A57"/>
<path d="M68.8857 75.2636C69.2383 75.4977 69.2383 75.7318 68.8857 75.9659C68.533 76.2 68.0628 76.2 67.7101 75.9659C67.3575 75.7318 67.3575 75.4977 67.7101 75.2636C67.9453 75.0295 68.533 75.0295 68.8857 75.2636Z" fill="#281A57"/>
<path d="M72.0596 73.3908C72.4122 73.6249 72.4122 73.859 72.0596 74.0931C71.7069 74.3272 71.2367 74.3272 70.8841 74.0931C70.5314 73.859 70.5314 73.6249 70.8841 73.3908C71.1192 73.1567 71.7069 73.1567 72.0596 73.3908Z" fill="#281A57"/>
<path d="M75.2335 71.518C75.5862 71.7521 75.5862 71.9862 75.2335 72.2203C74.8808 72.4544 74.4106 72.4544 74.058 72.2203C73.7053 71.9862 73.7053 71.7521 74.058 71.518C74.2931 71.4009 74.8808 71.4009 75.2335 71.518Z" fill="#281A57"/>
<path d="M78.4074 69.7622C78.7601 69.9963 78.7601 70.2304 78.4074 70.4645C78.0548 70.6986 77.5846 70.6986 77.2319 70.4645C76.8792 70.2304 76.8792 69.9963 77.2319 69.7622C77.467 69.5281 78.0548 69.5281 78.4074 69.7622Z" fill="#281A57"/>
<path d="M81.5813 67.8894C81.934 68.1235 81.934 68.3576 81.5813 68.5917C81.2287 68.8258 80.7585 68.8258 80.4058 68.5917C80.0531 68.3576 80.0531 68.1235 80.4058 67.8894C80.6409 67.7723 81.2287 67.7723 81.5813 67.8894Z" fill="#281A57"/>
<path d="M84.7552 66.1336C85.1079 66.3677 85.1079 66.6018 84.7552 66.836C84.4026 67.0701 83.9324 67.0701 83.5797 66.836C83.2271 66.6018 83.2271 66.3677 83.5797 66.1336C83.8148 65.8995 84.4026 65.8995 84.7552 66.1336Z" fill="#281A57"/>
<path d="M53.0161 80.6479C53.3688 80.882 53.3688 81.1161 53.0161 81.3502C52.6634 81.5843 52.1932 81.5843 51.8406 81.3502C51.4879 81.1161 51.4879 80.882 51.8406 80.6479C52.0757 80.5309 52.6634 80.5309 53.0161 80.6479Z" fill="#281A57"/>
<path d="M56.19 78.8922C56.5427 79.1263 56.5427 79.3604 56.19 79.5945C55.8374 79.8286 55.3672 79.8286 55.0145 79.5945C54.6618 79.3604 54.6618 79.1263 55.0145 78.8922C55.2496 78.6581 55.8374 78.6581 56.19 78.8922Z" fill="#281A57"/>
<path d="M59.3639 77.0194C59.7166 77.2535 59.7166 77.4876 59.3639 77.7217C59.0113 77.9558 58.5411 77.9558 58.1884 77.7217C57.8358 77.4876 57.8358 77.2535 58.1884 77.0194C58.4235 76.9023 59.0113 76.9023 59.3639 77.0194Z" fill="#281A57"/>
<path d="M62.5378 75.2636C62.8905 75.4977 62.8905 75.7318 62.5378 75.9659C62.1852 76.2 61.715 76.2 61.3623 75.9659C61.0097 75.7318 61.0097 75.4977 61.3623 75.2636C61.5974 75.0295 62.1852 75.0295 62.5378 75.2636Z" fill="#281A57"/>
<path d="M65.7118 73.3908C66.0644 73.6249 66.0644 73.859 65.7118 74.0931C65.3591 74.3272 64.8889 74.3272 64.5362 74.0931C64.1836 73.859 64.1836 73.6249 64.5362 73.3908C64.7713 73.1567 65.3591 73.1567 65.7118 73.3908Z" fill="#281A57"/>
<path d="M68.8857 71.518C69.2383 71.7521 69.2383 71.9862 68.8857 72.2203C68.533 72.4544 68.0628 72.4544 67.7101 72.2203C67.3575 71.9862 67.3575 71.7521 67.7101 71.518C67.9453 71.4009 68.533 71.4009 68.8857 71.518Z" fill="#281A57"/>
<path d="M72.0596 69.7622C72.4122 69.9963 72.4122 70.2304 72.0596 70.4645C71.7069 70.6986 71.2367 70.6986 70.8841 70.4645C70.5314 70.2304 70.5314 69.9963 70.8841 69.7622C71.1192 69.5281 71.7069 69.5281 72.0596 69.7622Z" fill="#281A57"/>
<path d="M75.2335 67.8894C75.5862 68.1235 75.5862 68.3576 75.2335 68.5917C74.8808 68.8258 74.4106 68.8258 74.058 68.5917C73.7053 68.3576 73.7053 68.1235 74.058 67.8894C74.2931 67.7723 74.8808 67.7723 75.2335 67.8894Z" fill="#281A57"/>
<path d="M78.4074 66.1336C78.7601 66.3677 78.7601 66.6018 78.4074 66.836C78.0548 67.0701 77.5846 67.0701 77.2319 66.836C76.8792 66.6018 76.8792 66.3677 77.2319 66.1336C77.467 65.8995 78.0548 65.8995 78.4074 66.1336Z" fill="#281A57"/>
<path d="M26.3317 91.6507C26.6844 91.4166 27.1546 91.4166 27.5072 91.6507C27.8599 91.8848 27.8599 92.1189 27.5072 92.353C27.1546 92.5871 26.6844 92.5871 26.3317 92.353C25.9791 92.1189 25.9791 91.8848 26.3317 91.6507Z" fill="#281A57"/>
<path d="M30.6812 89.8949C31.0338 90.129 31.0338 90.3631 30.6812 90.5972C30.3285 90.8313 29.8583 90.8313 29.5056 90.5972C29.153 90.3631 29.153 90.129 29.5056 89.8949C29.8583 89.6608 30.4461 89.6608 30.6812 89.8949Z" fill="#281A57"/>
<path d="M33.8551 88.0221C34.2077 88.2562 34.2077 88.4903 33.8551 88.7244C33.5024 88.9585 33.0322 88.9585 32.6795 88.7244C32.3269 88.4903 32.3269 88.2562 32.6795 88.0221C33.0322 87.788 33.62 87.788 33.8551 88.0221Z" fill="#281A57"/>
<path d="M37.029 86.1493C37.3816 86.3834 37.3816 86.6175 37.029 86.8516C36.6763 87.0857 36.2061 87.0857 35.8535 86.8516C35.5008 86.6175 35.5008 86.3834 35.8535 86.1493C36.2061 86.0323 36.7939 86.0323 37.029 86.1493Z" fill="#281A57"/>
<path d="M40.2029 84.3935C40.5556 84.6276 40.5556 84.8617 40.2029 85.0958C39.8502 85.3299 39.38 85.3299 39.0274 85.0958C38.6747 84.8617 38.6747 84.6276 39.0274 84.3935C39.38 84.1594 39.9678 84.1594 40.2029 84.3935Z" fill="#281A57"/>
<path d="M43.4944 82.5207C43.847 82.7548 43.847 82.9889 43.4944 83.223C43.1417 83.4571 42.6715 83.4571 42.3188 83.223C41.9662 82.9889 41.9662 82.7548 42.3188 82.5207C42.554 82.2866 43.1417 82.2866 43.4944 82.5207Z" fill="#281A57"/>
<path d="M46.6683 80.6479C47.0209 80.882 47.0209 81.1161 46.6683 81.3502C46.3156 81.5843 45.8454 81.5843 45.4928 81.3502C45.1401 81.1161 45.1401 80.882 45.4928 80.6479C45.7279 80.5309 46.3156 80.5309 46.6683 80.6479Z" fill="#281A57"/>
<path d="M49.8422 78.8922C50.1949 79.1263 50.1949 79.3604 49.8422 79.5945C49.4895 79.8286 49.0193 79.8286 48.6667 79.5945C48.314 79.3604 48.314 79.1263 48.6667 78.8922C48.9018 78.6581 49.4895 78.6581 49.8422 78.8922Z" fill="#281A57"/>
<path d="M53.0161 77.0194C53.3688 77.2535 53.3688 77.4876 53.0161 77.7217C52.6634 77.9558 52.1932 77.9558 51.8406 77.7217C51.4879 77.4876 51.4879 77.2535 51.8406 77.0194C52.0757 76.9023 52.6634 76.9023 53.0161 77.0194Z" fill="#281A57"/>
<path d="M56.19 75.2636C56.5427 75.4977 56.5427 75.7318 56.19 75.9659C55.8374 76.2 55.3672 76.2 55.0145 75.9659C54.6618 75.7318 54.6618 75.4977 55.0145 75.2636C55.2496 75.0295 55.8374 75.0295 56.19 75.2636Z" fill="#281A57"/>
<path d="M59.3639 73.3908C59.7166 73.6249 59.7166 73.859 59.3639 74.0931C59.0113 74.3272 58.5411 74.3272 58.1884 74.0931C57.8358 73.859 57.8358 73.6249 58.1884 73.3908C58.4235 73.1567 59.0113 73.1567 59.3639 73.3908Z" fill="#281A57"/>
<path d="M62.5378 71.518C62.8905 71.7521 62.8905 71.9862 62.5378 72.2203C62.1852 72.4544 61.715 72.4544 61.3623 72.2203C61.0097 71.9862 61.0097 71.7521 61.3623 71.518C61.5974 71.4009 62.1852 71.4009 62.5378 71.518Z" fill="#281A57"/>
<path d="M65.7118 69.7622C66.0644 69.9963 66.0644 70.2304 65.7118 70.4645C65.3591 70.6986 64.8889 70.6986 64.5362 70.4645C64.1836 70.2304 64.1836 69.9963 64.5362 69.7622C64.7713 69.5281 65.3591 69.5281 65.7118 69.7622Z" fill="#281A57"/>
<path d="M68.8857 67.8894C69.2383 68.1235 69.2383 68.3576 68.8857 68.5917C68.533 68.8258 68.0628 68.8258 67.7101 68.5917C67.3575 68.3576 67.3575 68.1235 67.7101 67.8894C67.9453 67.7723 68.533 67.7723 68.8857 67.8894Z" fill="#281A57"/>
<path d="M132.599 126.181C132.952 126.415 132.952 126.649 132.599 126.883C132.246 127.117 131.776 127.117 131.424 126.883C131.071 126.649 131.071 126.415 131.424 126.181C131.776 125.947 132.246 125.947 132.599 126.181Z" fill="#281A57"/>
<path d="M135.773 124.308C136.126 124.542 136.126 124.776 135.773 125.01C135.42 125.244 134.95 125.244 134.597 125.01C134.245 124.776 134.245 124.542 134.597 124.308C134.95 124.074 135.42 124.074 135.773 124.308Z" fill="#281A57"/>
<path d="M138.947 122.435C139.3 122.669 139.3 122.903 138.947 123.137C138.594 123.371 138.124 123.371 137.771 123.137C137.419 122.903 137.419 122.669 137.771 122.435C138.124 122.318 138.594 122.318 138.947 122.435Z" fill="#281A57"/>
<path d="M142.121 120.679C142.473 120.913 142.473 121.147 142.121 121.382C141.768 121.616 141.298 121.616 140.945 121.382C140.593 121.147 140.593 120.913 140.945 120.679C141.298 120.445 141.768 120.445 142.121 120.679Z" fill="#281A57"/>
<path d="M126.251 126.181C126.604 126.415 126.604 126.649 126.251 126.883C125.899 127.117 125.428 127.117 125.076 126.883C124.723 126.649 124.723 126.415 125.076 126.181C125.428 125.947 125.899 125.947 126.251 126.181Z" fill="#281A57"/>
<path d="M129.425 124.308C129.778 124.542 129.778 124.776 129.425 125.01C129.072 125.244 128.602 125.244 128.25 125.01C127.897 124.776 127.897 124.542 128.25 124.308C128.602 124.074 129.072 124.074 129.425 124.308Z" fill="#281A57"/>
<path d="M132.599 122.435C132.952 122.669 132.952 122.903 132.599 123.137C132.246 123.371 131.776 123.371 131.424 123.137C131.071 122.903 131.071 122.669 131.424 122.435C131.776 122.318 132.246 122.318 132.599 122.435Z" fill="#281A57"/>
<path d="M135.773 120.679C136.126 120.913 136.126 121.147 135.773 121.382C135.42 121.616 134.95 121.616 134.597 121.382C134.245 121.147 134.245 120.913 134.597 120.679C134.95 120.445 135.42 120.445 135.773 120.679Z" fill="#281A57"/>
<path d="M138.947 118.806C139.3 119.041 139.3 119.275 138.947 119.509C138.594 119.743 138.124 119.743 137.771 119.509C137.419 119.275 137.419 119.041 137.771 118.806C138.124 118.689 138.594 118.689 138.947 118.806Z" fill="#281A57"/>
<path d="M142.121 117.051C142.473 117.285 142.473 117.519 142.121 117.753C141.768 117.987 141.298 117.987 140.945 117.753C140.593 117.519 140.593 117.285 140.945 117.051C141.298 116.817 141.768 116.817 142.121 117.051Z" fill="#281A57"/>
<path d="M119.903 126.181C120.256 126.415 120.256 126.649 119.903 126.883C119.551 127.117 119.081 127.117 118.728 126.883C118.375 126.649 118.375 126.415 118.728 126.181C119.081 125.947 119.551 125.947 119.903 126.181Z" fill="#281A57"/>
<path d="M123.077 124.308C123.43 124.542 123.43 124.776 123.077 125.01C122.725 125.244 122.254 125.244 121.902 125.01C121.549 124.776 121.549 124.542 121.902 124.308C122.254 124.074 122.725 124.074 123.077 124.308Z" fill="#281A57"/>
<path d="M126.251 122.435C126.604 122.669 126.604 122.903 126.251 123.137C125.899 123.371 125.428 123.371 125.076 123.137C124.723 122.903 124.723 122.669 125.076 122.435C125.428 122.318 125.899 122.318 126.251 122.435Z" fill="#281A57"/>
<path d="M129.425 120.679C129.778 120.913 129.778 121.147 129.425 121.382C129.072 121.616 128.602 121.616 128.25 121.382C127.897 121.147 127.897 120.913 128.25 120.679C128.602 120.445 129.072 120.445 129.425 120.679Z" fill="#281A57"/>
<path d="M132.599 118.806C132.952 119.041 132.952 119.275 132.599 119.509C132.246 119.743 131.776 119.743 131.424 119.509C131.071 119.275 131.071 119.041 131.424 118.806C131.776 118.689 132.246 118.689 132.599 118.806Z" fill="#281A57"/>
<path d="M135.773 117.051C136.126 117.285 136.126 117.519 135.773 117.753C135.42 117.987 134.95 117.987 134.597 117.753C134.245 117.519 134.245 117.285 134.597 117.051C134.95 116.817 135.42 116.817 135.773 117.051Z" fill="#281A57"/>
<path d="M138.947 115.178C139.3 115.412 139.3 115.646 138.947 115.88C138.594 116.114 138.124 116.114 137.771 115.88C137.419 115.646 137.419 115.412 137.771 115.178C138.124 114.944 138.594 114.944 138.947 115.178Z" fill="#281A57"/>
<path d="M116.729 124.308C117.082 124.542 117.082 124.776 116.729 125.01C116.377 125.244 115.907 125.244 115.554 125.01C115.201 124.776 115.201 124.542 115.554 124.308C115.907 124.074 116.377 124.074 116.729 124.308Z" fill="#281A57"/>
<path d="M119.903 122.435C120.256 122.669 120.256 122.903 119.903 123.137C119.551 123.371 119.081 123.371 118.728 123.137C118.375 122.903 118.375 122.669 118.728 122.435C119.081 122.318 119.551 122.318 119.903 122.435Z" fill="#281A57"/>
<path d="M123.077 120.679C123.43 120.913 123.43 121.147 123.077 121.382C122.725 121.616 122.254 121.616 121.902 121.382C121.549 121.147 121.549 120.913 121.902 120.679C122.254 120.445 122.725 120.445 123.077 120.679Z" fill="#281A57"/>
<path d="M126.251 118.806C126.604 119.041 126.604 119.275 126.251 119.509C125.899 119.743 125.428 119.743 125.076 119.509C124.723 119.275 124.723 119.041 125.076 118.806C125.428 118.689 125.899 118.689 126.251 118.806Z" fill="#281A57"/>
<path d="M113.556 122.435C113.908 122.669 113.908 122.903 113.556 123.137C113.203 123.371 112.733 123.371 112.38 123.137C112.027 122.903 112.027 122.669 112.38 122.435C112.733 122.318 113.203 122.318 113.556 122.435Z" fill="#281A57"/>
<path d="M116.729 120.679C117.082 120.913 117.082 121.147 116.729 121.382C116.377 121.616 115.907 121.616 115.554 121.382C115.201 121.147 115.201 120.913 115.554 120.679C115.907 120.445 116.377 120.445 116.729 120.679Z" fill="#281A57"/>
<path d="M119.903 118.806C120.256 119.041 120.256 119.275 119.903 119.509C119.551 119.743 119.081 119.743 118.728 119.509C118.375 119.275 118.375 119.041 118.728 118.806C119.081 118.689 119.551 118.689 119.903 118.806Z" fill="#281A57"/>
<path d="M113.556 118.806C113.908 119.041 113.908 119.275 113.556 119.509C113.203 119.743 112.733 119.743 112.38 119.509C112.027 119.275 112.027 119.041 112.38 118.806C112.733 118.689 113.203 118.689 113.556 118.806Z" fill="#281A57"/>
<path d="M116.729 117.051C117.082 117.285 117.082 117.519 116.729 117.753C116.377 117.987 115.907 117.987 115.554 117.753C115.201 117.519 115.201 117.285 115.554 117.051C115.907 116.817 116.377 116.817 116.729 117.051Z" fill="#281A57"/>
<path d="M113.556 115.178C113.908 115.412 113.908 115.646 113.556 115.88C113.203 116.114 112.733 116.114 112.38 115.88C112.027 115.646 112.027 115.412 112.38 115.178C112.615 114.944 113.203 114.944 113.556 115.178Z" fill="#281A57"/>
<path d="M110.382 113.305C110.734 113.539 110.734 113.773 110.382 114.007C110.029 114.241 109.559 114.241 109.206 114.007C108.853 113.773 108.853 113.539 109.206 113.305C109.441 113.188 110.029 113.188 110.382 113.305Z" fill="#281A57"/>
<path d="M113.556 111.549C113.908 111.783 113.908 112.018 113.556 112.252C113.203 112.486 112.733 112.486 112.38 112.252C112.027 112.018 112.027 111.783 112.38 111.549C112.615 111.315 113.203 111.315 113.556 111.549Z" fill="#281A57"/>
<path d="M107.208 111.549C107.56 111.783 107.56 112.018 107.208 112.252C106.855 112.486 106.385 112.486 106.032 112.252C105.68 112.018 105.68 111.783 106.032 111.549C106.267 111.315 106.855 111.315 107.208 111.549Z" fill="#281A57"/>
<path d="M110.382 109.676C110.734 109.911 110.734 110.145 110.382 110.379C110.029 110.613 109.559 110.613 109.206 110.379C108.853 110.145 108.853 109.911 109.206 109.676C109.441 109.442 110.029 109.442 110.382 109.676Z" fill="#281A57"/>
<path d="M113.556 107.804C113.908 108.038 113.908 108.272 113.556 108.506C113.203 108.74 112.733 108.74 112.38 108.506C112.027 108.272 112.027 108.038 112.38 107.804C112.615 107.687 113.203 107.687 113.556 107.804Z" fill="#281A57"/>
<path d="M104.034 109.676C104.386 109.911 104.386 110.145 104.034 110.379C103.681 110.613 103.211 110.613 102.858 110.379C102.506 110.145 102.506 109.911 102.858 109.676C103.093 109.442 103.681 109.442 104.034 109.676Z" fill="#281A57"/>
<path d="M107.208 107.804C107.56 108.038 107.56 108.272 107.208 108.506C106.855 108.74 106.385 108.74 106.032 108.506C105.68 108.272 105.68 108.038 106.032 107.804C106.267 107.687 106.855 107.687 107.208 107.804Z" fill="#281A57"/>
<path d="M110.382 106.048C110.734 106.282 110.734 106.516 110.382 106.75C110.029 106.984 109.559 106.984 109.206 106.75C108.853 106.516 108.853 106.282 109.206 106.048C109.559 105.814 110.029 105.814 110.382 106.048Z" fill="#281A57"/>
<path d="M96.2754 69.7622C96.628 69.5281 97.0982 69.5281 97.4509 69.7622C97.8036 69.9963 97.8036 70.2304 97.4509 70.4645C97.0982 70.6986 96.628 70.6986 96.2754 70.4645C95.9227 70.2304 95.9227 69.9963 96.2754 69.7622Z" fill="#281A57"/>
<path d="M100.742 68.0064C101.095 68.2405 101.095 68.4747 100.742 68.7088C100.39 68.9429 99.9195 68.9429 99.5668 68.7088C99.2142 68.4747 99.2142 68.2405 99.5668 68.0064C99.8019 67.7723 100.39 67.7723 100.742 68.0064Z" fill="#281A57"/>
<path d="M103.916 66.1336C104.269 66.3677 104.269 66.6018 103.916 66.836C103.564 67.0701 103.093 67.0701 102.741 66.836C102.388 66.6018 102.388 66.3677 102.741 66.1336C102.976 65.8995 103.564 65.8995 103.916 66.1336Z" fill="#281A57"/>
<path d="M93.1015 68.0064C93.4541 67.7723 93.9243 67.7723 94.277 68.0064C94.6296 68.2405 94.6296 68.4747 94.277 68.7088C93.9243 68.9429 93.4541 68.9429 93.1015 68.7088C92.7488 68.4747 92.7488 68.1235 93.1015 68.0064Z" fill="#281A57"/>
<path d="M97.5685 66.1336C97.9211 66.3677 97.9211 66.6018 97.5685 66.836C97.2158 67.0701 96.7456 67.0701 96.3929 66.836C96.0403 66.6018 96.0403 66.3677 96.3929 66.1336C96.628 65.8995 97.2158 65.8995 97.5685 66.1336Z" fill="#281A57"/>
<path d="M100.742 64.2608C101.095 64.4949 101.095 64.729 100.742 64.9631C100.39 65.1972 99.9195 65.1972 99.5668 64.9631C99.2142 64.729 99.2142 64.4949 99.5668 64.2608C99.8019 64.1438 100.39 64.1438 100.742 64.2608Z" fill="#281A57"/>
<path d="M103.916 62.5051C104.269 62.7392 104.269 62.9733 103.916 63.2074C103.564 63.4415 103.093 63.4415 102.741 63.2074C102.388 62.9733 102.388 62.7392 102.741 62.5051C102.976 62.271 103.564 62.271 103.916 62.5051Z" fill="#281A57"/>
<path d="M89.9275 66.1336C90.2802 65.8995 90.7504 65.8995 91.1031 66.1336C91.4557 66.3677 91.4557 66.6018 91.1031 66.836C90.7504 67.0701 90.2802 67.0701 89.9275 66.836C89.5749 66.6018 89.5749 66.2507 89.9275 66.1336Z" fill="#281A57"/>
<path d="M94.277 64.2608C94.6296 64.4949 94.6296 64.729 94.277 64.9631C93.9243 65.1972 93.4541 65.1972 93.1015 64.9631C92.7488 64.729 92.7488 64.4949 93.1015 64.2608C93.4541 64.0267 93.9243 64.0267 94.277 64.2608Z" fill="#281A57"/>
<path d="M97.4509 62.5051C97.8036 62.7392 97.8036 62.9733 97.4509 63.2074C97.0982 63.4415 96.628 63.4415 96.2754 63.2074C95.9227 62.9733 95.9227 62.7392 96.2754 62.5051C96.628 62.271 97.0982 62.271 97.4509 62.5051Z" fill="#281A57"/>
<path d="M100.625 60.6323C100.977 60.8664 100.977 61.1005 100.625 61.3346C100.272 61.5687 99.8019 61.5687 99.4493 61.3346C99.0966 61.1005 99.0966 60.8664 99.4493 60.6323C99.8019 60.3982 100.272 60.3982 100.625 60.6323Z" fill="#281A57"/>
<path d="M86.7536 64.2608C87.1063 64.0267 87.5765 64.0267 87.9292 64.2608C88.2818 64.4949 88.2818 64.729 87.9292 64.9631C87.5765 65.1972 87.1063 65.1972 86.7536 64.9631C86.401 64.729 86.401 64.4949 86.7536 64.2608Z" fill="#281A57"/>
<path d="M91.1031 62.5051C91.4557 62.7392 91.4557 62.9733 91.1031 63.2074C90.7504 63.4415 90.2802 63.4415 89.9275 63.2074C89.5749 62.9733 89.5749 62.7392 89.9275 62.5051C90.2802 62.271 90.7504 62.271 91.1031 62.5051Z" fill="#281A57"/>
<path d="M94.277 60.6323C94.6296 60.8664 94.6296 61.1005 94.277 61.3346C93.9243 61.5687 93.4541 61.5687 93.1015 61.3346C92.7488 61.1005 92.7488 60.8664 93.1015 60.6323C93.4541 60.3982 93.9243 60.3982 94.277 60.6323Z" fill="#281A57"/>
<path d="M97.4509 58.7594C97.8036 58.9936 97.8036 59.2277 97.4509 59.4618C97.0982 59.6959 96.628 59.6959 96.2754 59.4618C95.9227 59.2277 95.9227 58.9936 96.2754 58.7594C96.628 58.6424 97.0982 58.6424 97.4509 58.7594Z" fill="#281A57"/>
<path d="M109.676 103.941C105.092 101.249 97.8036 101.249 93.219 103.941L75.4686 114.124C71.8245 116.231 65.5942 116.231 61.9501 114.124C60.4219 113.305 59.599 112.135 59.599 111.081C59.599 110.028 60.4219 108.974 61.9501 108.038L82.4042 96.3327C84.8728 94.9281 86.2834 92.9383 86.2834 90.7143C86.2834 88.4903 84.8728 86.5005 82.4042 85.0958L81.934 84.8618C77.3494 82.1696 70.0612 82.1696 65.4767 84.8618L25.9791 107.57C22.3349 109.677 16.1047 109.677 12.4605 107.57L5.28986 103.473C3.76167 102.653 2.93881 101.483 2.93881 100.43C2.93881 99.376 3.76167 98.3226 5.28986 97.3862L67.2399 62.0369C69.591 63.0903 72.8824 62.9733 74.9984 61.6857C77.3494 60.3982 77.3494 58.1742 74.9984 56.7696C72.6473 55.482 68.8857 55.482 66.5346 56.7696C65.124 57.5889 64.5362 58.7594 64.8889 59.8129L3.76167 94.8111C1.41063 96.3327 0 98.3226 0 100.43C0 102.653 1.41063 104.643 3.87923 106.048L11.0499 110.145C15.6345 112.837 22.9227 112.837 27.5072 110.145L67.0048 87.4369C70.649 85.33 76.8792 85.33 80.5234 87.4369L80.9936 87.671C82.5217 88.4903 83.3446 89.6608 83.3446 90.7143C83.3446 91.7677 82.5217 92.8212 80.9936 93.7576L60.5395 105.463C58.0709 106.867 56.6602 108.857 56.6602 111.081C56.6602 113.305 58.0709 115.295 60.5395 116.7C65.124 119.392 72.4122 119.392 76.9968 116.7L94.7472 106.516C98.3913 104.409 104.622 104.409 108.266 106.516L116.259 111.549L117.67 107.57L109.676 103.941Z" fill="#281A57"/>
<path d="M110.029 101.483C105.444 98.7908 98.1562 98.7908 93.5717 101.483L75.8213 111.666C72.1771 113.773 65.9469 113.773 62.3027 111.666C60.7746 110.847 59.9517 109.677 59.9517 108.623C59.9517 107.57 60.7746 106.516 62.3027 105.58L82.7568 93.8747C85.2254 92.47 86.6361 90.4802 86.6361 88.2562C86.6361 86.0323 85.2254 84.0424 82.7568 82.6378L82.2866 82.4037C77.7021 79.7115 70.4138 79.7115 65.8293 82.4037L26.3317 105.112C22.6876 107.218 16.4573 107.218 12.8132 105.112L5.64252 101.015C4.11433 100.195 3.29147 99.0249 3.29147 97.9714C3.29147 96.918 4.11433 95.8645 5.64252 94.9281L68.1804 59.1106C70.4138 59.6959 73.1175 59.4618 74.9984 58.4083C77.3494 57.1207 77.3494 54.8968 74.9984 53.4922C72.6473 52.2046 68.8857 52.2046 66.5346 53.4922C64.7713 54.5456 64.3011 56.0673 65.2415 57.2378L4.11433 92.236C1.64574 93.6406 0.235107 95.6304 0.235107 97.8544C0.235107 100.078 1.64574 102.068 4.11433 103.473L11.4026 107.687C15.9871 110.379 23.2754 110.379 27.8599 107.687L67.3575 84.9788C71.0016 82.8719 77.2319 82.8719 80.876 84.9788L81.3462 85.2129C82.8744 86.0323 83.6973 87.2028 83.6973 88.2562C83.6973 89.3097 82.8744 90.3631 81.3462 91.2995L60.8921 103.005C58.4235 104.409 57.0129 106.399 57.0129 108.623C57.0129 110.847 58.4235 112.837 60.8921 114.241C65.4766 116.934 72.7649 116.934 77.3494 114.241L95.0998 104.058C98.744 101.951 104.974 101.951 108.618 104.058L116.612 109.091L119.903 107.57L110.029 101.483Z" fill="#FD5D2D"/>
<path d="M129.425 111.783C127.897 110.847 125.311 110.847 123.783 111.783C122.254 112.72 122.254 114.124 123.783 115.061C125.311 115.997 127.897 115.997 129.425 115.061C131.071 114.124 131.071 112.603 129.425 111.783Z" fill="#281A57"/>
<path d="M135.655 107.57C130.601 104.643 122.607 104.643 117.552 107.57C114.966 109.091 113.438 111.198 113.438 113.422C113.438 115.646 114.849 117.753 117.552 119.275C120.138 120.679 123.312 121.499 126.604 121.499C129.895 121.499 133.069 120.796 135.655 119.275C138.242 117.753 139.77 115.646 139.77 113.422C139.77 111.081 138.242 109.091 135.655 107.57ZM134.597 117.402C130.248 119.977 123.077 119.977 118.61 117.402C116.729 116.348 115.671 114.944 115.671 113.422C115.671 112.018 116.729 110.613 118.61 109.442C120.844 108.155 123.665 107.57 126.604 107.57C129.543 107.57 132.364 108.155 134.597 109.442C136.478 110.496 137.536 111.9 137.536 113.422C137.536 114.827 136.478 116.231 134.597 117.402Z" fill="#281A57"/>
<path d="M129.425 109.559C127.897 108.623 125.311 108.623 123.783 109.559C122.254 110.496 122.254 111.9 123.783 112.837C125.311 113.773 127.897 113.773 129.425 112.837C131.071 112.018 131.071 110.496 129.425 109.559Z" fill="#FD5D2D"/>
<path d="M135.655 105.463C130.601 102.536 122.607 102.536 117.552 105.463C114.966 106.984 113.438 109.091 113.438 111.315C113.438 113.539 114.849 115.646 117.552 117.168C120.138 118.572 123.312 119.392 126.604 119.392C129.895 119.392 133.069 118.689 135.655 117.168C138.242 115.646 139.77 113.539 139.77 111.315C139.77 108.974 138.242 106.867 135.655 105.463ZM134.597 115.178C130.248 117.753 123.077 117.753 118.61 115.178C116.729 114.124 115.671 112.72 115.671 111.198C115.671 109.794 116.729 108.389 118.61 107.218C120.844 105.931 123.665 105.346 126.604 105.346C129.543 105.346 132.364 105.931 134.597 107.218C136.478 108.272 137.536 109.676 137.536 111.198C137.536 112.72 136.478 114.124 134.597 115.178Z" fill="#FD5D2D"/>
<path d="M124.958 45.8839C116.494 49.7465 108.853 61.5687 108.148 72.4544C107.913 76.7852 108.736 80.2968 110.499 82.7548L122.725 105.814L128.602 108.623C129.072 107.453 137.654 66.8359 138.124 65.6654C139.064 62.8562 145.295 60.9834 145.295 58.2912C145.412 48.2249 133.187 42.1382 124.958 45.8839ZM123.9 71.8691C120.609 73.5078 118.023 71.518 118.258 67.3041C118.493 63.2074 121.314 58.6424 124.605 57.1207C127.779 55.5991 130.366 57.5889 130.248 61.5687C129.895 65.6654 127.192 70.2304 123.9 71.8691Z" fill="#F6F6F5"/>
<path d="M126.016 47.9908C117.552 51.8535 109.911 63.6756 109.206 74.5613C109.089 76.6682 109.206 78.541 109.559 80.1797C119.198 86.0323 126.486 85.6811 134.127 90.8313C136.478 79.9456 138.947 68.4747 139.182 67.8894C140.122 65.0802 144.824 62.8562 144.824 60.1641C144.824 49.8636 134.245 44.1281 126.016 47.9908ZM124.958 73.976C121.667 75.6147 119.081 73.6249 119.316 69.4111C119.551 65.3143 122.372 60.7493 125.663 59.2276C128.837 57.706 131.424 59.6959 131.306 63.6756C130.953 67.7723 128.25 72.3373 124.958 73.976Z" fill="#FD5D2D"/>
<path d="M128.837 109.676L122.137 106.399L122.019 106.165L109.794 83.106C107.913 80.5309 107.09 76.9023 107.443 72.4544C108.148 61.4516 115.907 49.2783 124.605 45.2986C128.955 43.3088 134.833 43.894 139.3 46.8203C143.531 49.5124 145.882 53.7263 145.765 58.4083C145.765 60.1641 143.767 61.5687 141.886 62.7392C140.357 63.7926 138.829 64.8461 138.477 66.0166C138.359 66.4848 136.713 73.859 135.068 81.7014C131.659 97.2691 129.308 108.272 128.955 108.974L128.837 109.676ZM123.077 105.463L128.014 107.921C128.837 104.76 131.659 91.4166 133.775 81.4673C135.773 71.9862 137.066 66.1336 137.301 65.6654C137.771 64.1438 139.535 62.9733 141.18 61.8028C142.826 60.7493 144.472 59.5788 144.472 58.4083C144.589 54.1945 142.356 50.4488 138.594 47.9908C134.48 45.2986 129.19 44.7134 125.193 46.5862C116.847 50.3318 109.441 62.0369 108.736 72.5714C108.501 76.6682 109.206 80.0627 110.969 82.4037L123.077 105.463ZM121.667 73.1567C120.961 73.1567 120.256 72.9226 119.551 72.5714C118.14 71.635 117.435 69.7622 117.552 67.4212C117.787 63.0903 120.726 58.4083 124.253 56.6525C125.899 55.8332 127.544 55.8332 128.72 56.6525C130.13 57.5889 130.836 59.3447 130.718 61.6857C130.601 65.8995 127.662 70.8157 124.135 72.5714C123.312 72.9226 122.49 73.1567 121.667 73.1567ZM126.604 57.3548C126.016 57.3548 125.428 57.4719 124.841 57.823C121.784 59.3447 119.081 63.5585 118.845 67.4212C118.728 69.294 119.316 70.8157 120.256 71.4009C121.079 71.9862 122.254 71.8691 123.548 71.2839C126.604 69.7622 129.308 65.3143 129.425 61.5687C129.425 59.8129 128.955 58.2912 128.014 57.706C127.544 57.4719 127.074 57.3548 126.604 57.3548Z" fill="#281A57"/>
<path d="M145.295 60.047C145.412 49.8636 139.064 44.9475 130.718 48.6931C122.254 52.6728 114.731 64.3779 114.026 75.3806C113.791 79.7115 114.614 83.223 116.377 85.6811L128.602 108.74L142.591 72.2203C143.061 71.0498 143.531 69.7622 144.002 68.5917C144.824 65.7825 145.295 62.8562 145.295 60.047Z" fill="#281A57"/>
<path d="M128.837 109.676L128.014 109.325L115.672 85.9152C113.791 83.3401 112.968 79.7115 113.32 75.2636C114.026 64.3779 121.784 52.2046 130.483 48.1078C134.362 46.3521 138.124 46.3521 140.945 48.2249C144.237 50.3318 146 54.5456 145.882 60.047C145.882 62.8562 145.295 65.7825 144.354 68.7088C144.002 69.9963 143.531 71.1668 142.944 72.3373L128.837 109.676ZM136.126 48.1078C134.597 48.1078 132.834 48.459 131.071 49.2783C122.725 53.141 115.319 64.8461 114.614 75.3806C114.378 79.4774 115.084 82.8719 116.847 85.2129L128.485 107.101L141.886 71.8691C142.473 70.6986 142.826 69.5281 143.296 68.2405C144.237 65.3143 144.707 62.5051 144.707 59.93C144.824 54.8968 143.179 51.0341 140.357 49.1613C139.064 48.459 137.654 48.1078 136.126 48.1078Z" fill="#281A57"/>
<path d="M128.955 82.7548L122.725 78.541C121.902 77.9558 121.902 76.2 122.842 74.6783C123.783 73.1567 125.311 72.3373 126.134 72.9226L129.308 75.0295L135.068 63.3244C135.891 61.6857 137.301 60.6323 138.359 61.1005C139.417 61.4516 139.535 63.0903 138.712 64.729L130.013 82.1696C129.778 82.6378 129.308 82.8719 128.955 82.7548Z" fill="#F6F6F5"/>
<path d="M98.744 20.1327L65.124 0.819354L31.504 20.1327V58.7594L65.124 78.0728V39.5631L98.744 20.1327Z" fill="#FD5D2D"/>
<path d="M31.504 58.6424L65.124 77.9558V39.4461L31.504 20.0157V58.6424Z" fill="#F6F6F5"/>
<path d="M99.4493 19.6645L65.124 0L30.9163 19.6645L30.7987 19.7816V20.6009V59.2276L64.4187 78.541L65.124 78.8922L65.8293 78.541L99.0966 59.4617L99.4493 59.2276V20.6009V19.6645ZM65.124 1.52166L80.876 10.6516L48.6667 29.1456L32.9147 20.1327L65.124 1.52166ZM64.5362 76.9023L32.2093 58.4083V21.3032L64.5362 39.7972V76.9023ZM78.8776 30.7843L65.124 38.6267L49.372 29.6138L81.5813 11.0028L97.3333 20.1327L78.8776 30.7843Z" fill="#281A57"/>
<path d="M51.8406 39.4461L45.6103 35.8175C44.905 35.4664 44.1997 35.3493 43.6119 35.7005C42.9066 36.0516 42.5539 36.871 42.5539 37.9244C42.5539 39.5631 43.6119 41.553 44.905 42.2553L51.1353 45.8839C51.4879 46.118 51.8406 46.235 52.3108 46.235C52.6634 46.235 52.8986 46.118 53.1337 46.0009C53.839 45.6498 54.1916 44.8304 54.1916 43.777C54.0741 42.1382 53.1337 40.2654 51.8406 39.4461ZM52.4283 44.8304C52.1932 44.9475 51.9581 44.8304 51.8406 44.7134L45.6103 41.0848C44.6699 40.6166 43.9646 39.0949 43.9646 37.9244C43.9646 37.3392 44.1997 36.988 44.3172 36.871C44.5523 36.7539 44.7874 36.871 44.905 36.988L45.3752 37.2221C45.4928 38.6267 46.4332 40.1484 47.4911 40.8507L52.781 43.894C52.781 44.4793 52.5459 44.7134 52.4283 44.8304Z" fill="#281A57"/>
</svg>
